  0
SECTION
  2
HEADER
  9
$ACADVER
  1
AC1024
  9
$ACADMAINTVER
 70
     6
  9
$DWGCODEPAGE
  3
ANSI_1252
  9
$INSBASE
 10
0.0
 20
0.0
 30
0.0
  9
$EXTMIN
 10
0.0
 20
0.0
 30
0.0
  9
$EXTMAX
 10
300.0
 20
300.0
 30
0.0
  9
$LIMMIN
 10
0.0
 20
0.0
  9
$LIMMAX
 10
300.0
 20
300.0
  9
$ORTHOMODE
 70
     0
  9
$REGENMODE
 70
     1
  9
$FILLMODE
 70
     1
  9
$QTEXTMODE
 70
     0
  9
$MIRRTEXT
 70
     1
  9
$LTSCALE
 40
1.0
  9
$ATTMODE
 70
     1
  9
$TEXTSIZE
 40
3.5
  9
$TRACEWID
 40
1.0
  9
$TEXTSTYLE
  7
STANDARD
  9
$CLAYER
  8
0
  9
$CELTYPE
  6
ByLayer
  9
$CECOLOR
 62
   256
  9
$CELTSCALE
 40
1.0
  9
$DISPSILH
 70
     0
  9
$DIMSCALE
 40
1.0
  9
$DIMASZ
 40
3.302
  9
$DIMEXO
 40
1.0
  9
$DIMDLI
 40
3.75
  9
$DIMRND
 40
0.0
  9
$DIMDLE
 40
0.0
  9
$DIMEXE
 40
1.0
  9
$DIMTP
 40
0.0
  9
$DIMTM
 40
0.0
  9
$DIMTXT
 40
3.5
  9
$DIMCEN
 40
2.5
  9
$DIMTSZ
 40
0.0
  9
$DIMTOL
 70
     0
  9
$DIMLIM
 70
     0
  9
$DIMTIH
 70
     1
  9
$DIMTOH
 70
     1
  9
$DIMSE1
 70
     0
  9
$DIMSE2
 70
     0
  9
$DIMTAD
 70
     1
  9
$DIMZIN
 70
     0
  9
$DIMBLK
  1

  9
$DIMASO
 70
     1
  9
$DIMSHO
 70
     1
  9
$DIMPOST
  1

  9
$DIMAPOST
  1

  9
$DIMALT
 70
     0
  9
$DIMALTD
 70
     3
  9
$DIMALTF
 40
0.0393700787
  9
$DIMLFAC
 40
1.0
  9
$DIMTOFL
 70
     1
  9
$DIMTVP
 40
0.0
  9
$DIMTIX
 70
     0
  9
$DIMSOXD
 70
     0
  9
$DIMSAH
 70
     0
  9
$DIMBLK1
  1

  9
$DIMBLK2
  1

  9
$DIMSTYLE
  2
ISO-25
  9
$DIMCLRD
 70
     0
  9
$DIMCLRE
 70
     0
  9
$DIMCLRT
 70
     0
  9
$DIMTFAC
 40
1.0
  9
$DIMGAP
 40
1.524
  9
$DIMJUST
 70
     0
  9
$DIMSD1
 70
     0
  9
$DIMSD2
 70
     0
  9
$DIMTOLJ
 70
     0
  9
$DIMTZIN
 70
     0
  9
$DIMALTZ
 70
     0
  9
$DIMALTTZ
 70
     0
  9
$DIMUPT
 70
     0
  9
$DIMDEC
 70
     2
  9
$DIMTDEC
 70
     2
  9
$DIMALTU
 70
     2
  9
$DIMALTTD
 70
     3
  9
$DIMTXSTY
  7
STANDARD
  9
$DIMAUNIT
 70
     0
  9
$DIMADEC
 70
     2
  9
$DIMALTRND
 40
0.0
  9
$DIMAZIN
 70
     0
  9
$DIMDSEP
 70
    44
  9
$DIMATFIT
 70
     3
  9
$DIMFRAC
 70
     0
  9
$DIMLDRBLK
  1

  9
$DIMLUNIT
 70
     2
  9
$DIMLWD
 70
    -2
  9
$DIMLWE
 70
    -2
  9
$DIMTMOVE
 70
     0
  9
$DIMFXL
 40
1.0
  9
$DIMFXLON
 70
     0
  9
$DIMJOGANG
 40
0.7853981634
  9
$DIMTFILL
 70
     0
  9
$DIMTFILLCLR
 70
     0
  9
$DIMARCSYM
 70
     0
  9
$DIMLTYPE
  6

  9
$DIMLTEX1
  6

  9
$DIMLTEX2
  6

  9
$DIMTXTDIRECTION
 70
     0
  9
$LUNITS
 70
     2
  9
$LUPREC
 70
     2
  9
$SKETCHINC
 40
1.0
  9
$FILLETRAD
 40
10.0
  9
$AUNITS
 70
     0
  9
$AUPREC
 70
     2
  9
$MENU
  1
.
  9
$ELEVATION
 40
0.0
  9
$PELEVATION
 40
0.0
  9
$THICKNESS
 40
0.0
  9
$LIMCHECK
 70
     0
  9
$CHAMFERA
 40
10.0
  9
$CHAMFERB
 40
10.0
  9
$CHAMFERC
 40
20.0
  9
$CHAMFERD
 40
0.0
  9
$SKPOLY
 70
     0
  9
$TDCREATE
 40
2456581.977094144
  9
$TDUCREATE
 40
2456581.89376081
  9
$TDUPDATE
 40
2456581.977094328
  9
$TDUUPDATE
 40
2456581.893760995
  9
$TDINDWG
 40
0.0000000116
  9
$TDUSRTIMER
 40
0.0000000116
  9
$USRTIMER
 70
     1
  9
$ANGBASE
 50
0.0
  9
$ANGDIR
 70
     0
  9
$PDMODE
 70
     0
  9
$PDSIZE
 40
-1.0
  9
$PLINEWID
 40
0.0
  9
$SPLFRAME
 70
     0
  9
$SPLINETYPE
 70
     6
  9
$SPLINESEGS
 70
     8
  9
$HANDSEED
  5
1B6
  9
$SURFTAB1
 70
     6
  9
$SURFTAB2
 70
     6
  9
$SURFTYPE
 70
     6
  9
$SURFU
 70
     6
  9
$SURFV
 70
     6
  9
$UCSBASE
  2

  9
$UCSNAME
  2

  9
$UCSORG
 10
0.0
 20
0.0
 30
0.0
  9
$UCSXDIR
 10
1.0
 20
0.0
 30
0.0
  9
$UCSYDIR
 10
0.0
 20
1.0
 30
0.0
  9
$UCSORTHOREF
  2

  9
$UCSORTHOVIEW
 70
     0
  9
$UCSORGTOP
 10
0.0
 20
0.0
 30
0.0
  9
$UCSORGBOTTOM
 10
0.0
 20
0.0
 30
0.0
  9
$UCSORGLEFT
 10
0.0
 20
0.0
 30
0.0
  9
$UCSORGRIGHT
 10
0.0
 20
0.0
 30
0.0
  9
$UCSORGFRONT
 10
0.0
 20
0.0
 30
0.0
  9
$UCSORGBACK
 10
0.0
 20
0.0
 30
0.0
  9
$PUCSBASE
  2

  9
$PUCSNAME
  2

  9
$PUCSORG
 10
0.0
 20
0.0
 30
0.0
  9
$PUCSXDIR
 10
1.0
 20
0.0
 30
0.0
  9
$PUCSYDIR
 10
0.0
 20
1.0
 30
0.0
  9
$PUCSORTHOREF
  2

  9
$PUCSORTHOVIEW
 70
     0
  9
$PUCSORGTOP
 10
0.0
 20
0.0
 30
0.0
  9
$PUCSORGBOTTOM
 10
0.0
 20
0.0
 30
0.0
  9
$PUCSORGLEFT
 10
0.0
 20
0.0
 30
0.0
  9
$PUCSORGRIGHT
 10
0.0
 20
0.0
 30
0.0
  9
$PUCSORGFRONT
 10
0.0
 20
0.0
 30
0.0
  9
$PUCSORGBACK
 10
0.0
 20
0.0
 30
0.0
  9
$USERI1
 70
     0
  9
$USERI2
 70
     0
  9
$USERI3
 70
     0
  9
$USERI4
 70
     0
  9
$USERI5
 70
     0
  9
$USERR1
 40
0.0
  9
$USERR2
 40
0.0
  9
$USERR3
 40
0.0
  9
$USERR4
 40
0.0
  9
$USERR5
 40
0.0
  9
$WORLDVIEW
 70
     1
  9
$SHADEDGE
 70
     3
  9
$SHADEDIF
 70
    70
  9
$TILEMODE
 70
     1
  9
$MAXACTVP
 70
    64
  9
$PINSBASE
 10
0.0
 20
0.0
 30
0.0
  9
$PLIMCHECK
 70
     0
  9
$PEXTMIN
 10
1.0000000000E+20
 20
1.0000000000E+20
 30
1.0000000000E+20
  9
$PEXTMAX
 10
-1.0000000000E+20
 20
-1.0000000000E+20
 30
-1.0000000000E+20
  9
$PLIMMIN
 10
0.0
 20
0.0
  9
$PLIMMAX
 10
420.0
 20
297.0
  9
$UNITMODE
 70
     0
  9
$VISRETAIN
 70
     1
  9
$PLINEGEN
 70
     0
  9
$PSLTSCALE
 70
     1
  9
$TREEDEPTH
 70
  3020
  9
$CMLSTYLE
  2
Standard
  9
$CMLJUST
 70
     0
  9
$CMLSCALE
 40
20.0
  9
$PROXYGRAPHICS
 70
     1
  9
$MEASUREMENT
 70
     1
  9
$CELWEIGHT
370
    -1
  9
$ENDCAPS
280
     0
  9
$JOINSTYLE
280
     0
  9
$LWDISPLAY
290
     1
  9
$INSUNITS
 70
     4
  9
$HYPERLINKBASE
  1

  9
$STYLESHEET
  1

  9
$XEDIT
290
     1
  9
$CEPSNTYPE
380
     0
  9
$PSTYLEMODE
290
     1
  9
$FINGERPRINTGUID
  2
{01040876-822A-427D-B307-08710BA333C8}
  9
$VERSIONGUID
  2
{FAEB1C32-E019-11D5-929B-00C0DF256EC4}
  9
$EXTNAMES
290
     1
  9
$PSVPSCALE
 40
0.0
  9
$OLESTARTUP
290
     0
  9
$SORTENTS
280
   127
  9
$INDEXCTL
280
     0
  9
$HIDETEXT
280
     1
  9
$XCLIPFRAME
280
     2
  9
$HALOGAP
280
     0
  9
$OBSCOLOR
 70
   257
  9
$OBSLTYPE
280
     0
  9
$INTERSECTIONDISPLAY
280
     0
  9
$INTERSECTIONCOLOR
 70
   257
  9
$DIMASSOC
280
     2
  9
$PROJECTNAME
  1

  9
$CAMERADISPLAY
290
     0
  9
$LENSLENGTH
 40
50.0
  9
$CAMERAHEIGHT
 40
0.0
  9
$STEPSPERSEC
 40
2.0
  9
$STEPSIZE
 40
6.0
  9
$3DDWFPREC
 40
2.0
  9
$PSOLWIDTH
 40
5.0
  9
$PSOLHEIGHT
 40
80.0
  9
$LOFTANG1
 40
1.5707963268
  9
$LOFTANG2
 40
1.5707963268
  9
$LOFTMAG1
 40
0.0
  9
$LOFTMAG2
 40
0.0
  9
$LOFTPARAM
 70
     7
  9
$LOFTNORMALS
280
     1
  9
$LATITUDE
 40
37.795
  9
$LONGITUDE
 40
-122.394
  9
$NORTHDIRECTION
 40
0.0
  9
$TIMEZONE
 70
 -8000
  9
$LIGHTGLYPHDISPLAY
280
     1
  9
$TILEMODELIGHTSYNCH
280
     1
  9
$SOLIDHIST
280
     1
  9
$SHOWHIST
280
     1
  9
$DWFFRAME
280
     2
  9
$DGNFRAME
280
     2
  9
$REALWORLDSCALE
290
     1
  9
$INTERFERECOLOR
 62
   256
  9
$CSHADOW
280
     0
  9
$SHADOWPLANELOCATION
 40
0.0
  0
ENDSEC
  0
SECTION
  2
CLASSES
  0
CLASS
  1
ACDBDICTIONARYWDFLT
  2
AcDbDictionaryWithDefault
  3
ObjectDBX Classes
 90
        0
 91
        4
280
     0
281
     0
  0
CLASS
  1
VISUALSTYLE
  2
AcDbVisualStyle
  3
ObjectDBX Classes
 90
     4095
 91
        4
280
     0
281
     0
  0
CLASS
  1
MATERIAL
  2
AcDbMaterial
  3
ObjectDBX Classes
 90
     1153
 91
        4
280
     0
281
     0
  0
ENDSEC
  0
SECTION
  2
TABLES
  0
TABLE
  2
VPORT
  5
8
330
0
100
AcDbSymbolTable
 70
     1
  0
VPORT
  5
29
330
8
100
AcDbSymbolTableRecord
100
AcDbViewportTableRecord
  2
*Active
 70
     0
 10
0.0
 20
0.0
 11
1.0
 21
1.0
 12
150.0
 22
150.0
 13
0.0
 23
0.0
 14
10.0
 24
10.0
 15
10.0
 25
10.0
 16
0.0
 26
0.0
 36
1.0
 17
0.0
 27
0.0
 37
0.0
 40
300.0
 41
1.0
 42
50.0
 43
0.0
 44
0.0
 50
0.0
 51
0.0
 71
     0
 72
  2000
 73
     1
 74
     3
 75
     0
 76
     0
 77
     0
 78
     0
281
     0
 65
     1
110
0.0
120
0.0
130
0.0
111
1.0
121
0.0
131
0.0
112
0.0
122
1.0
132
0.0
 79
     0
146
0.0
 60
     3
 61
     5
292
     1
282
     1
141
0.0
142
0.0
 63
   250
  0
ENDTAB
  0
TABLE
  2
LTYPE
  5
5
330
0
100
AcDbSymbolTable
 70
     6
  0
LTYPE
  5
14
330
5
100
AcDbSymbolTableRecord
100
AcDbLinetypeTableRecord
  2
ByBlock
 70
     0
  3

 72
    65
 73
     0
 40
0.0
  0
LTYPE
  5
15
330
5
100
AcDbSymbolTableRecord
100
AcDbLinetypeTableRecord
  2
ByLayer
 70
     0
  3

 72
    65
 73
     0
 40
0.0
  0
LTYPE
  5
16
330
5
100
AcDbSymbolTableRecord
100
AcDbLinetypeTableRecord
  2
Continuous
 70
     0
  3
Solid line
 72
    65
 73
     0
 40
0.0
  0
LTYPE
  5
3F
330
5
100
AcDbSymbolTableRecord
100
AcDbLinetypeTableRecord
  2
HIDDEN
 70
     0
  3
Hidden __ __ __ __ __ __ __ __ __ __ __ __ __ __
 72
    65
 73
     2
 40
1.905
 49
1.27
 74
     0
 49
-0.635
 74
     0
  0
LTYPE
  5
40
330
5
100
AcDbSymbolTableRecord
100
AcDbLinetypeTableRecord
  2
PHANTOM
 70
     0
  3
Phantom ______  __  __  ______  __  __  ______
 72
    65
 73
     6
 40
12.7
 49
6.35
 74
     0
 49
-1.27
 74
     0
 49
1.27
 74
     0
 49
-1.27
 74
     0
 49
1.27
 74
     0
 49
-1.27
 74
     0
  0
LTYPE
  5
41
330
5
100
AcDbSymbolTableRecord
100
AcDbLinetypeTableRecord
  2
CENTER
 70
     0
  3
Center ____ _ ____ _ ____ _ ____ _ ____ _ ____
 72
    65
 73
     4
 40
10.16
 49
6.35
 74
     0
 49
-1.27
 74
     0
 49
1.27
 74
     0
 49
-1.27
 74
     0
  0
LTYPE
  5
42
330
5
100
AcDbSymbolTableRecord
100
AcDbLinetypeTableRecord
  2
CENTERX2
 70
     0
  3
Center (2x) ________  __  ________  __  _____
 72
    65
 73
     4
 40
20.32
 49
12.7
 74
     0
 49
-2.54
 74
     0
 49
2.54
 74
     0
 49
-2.54
 74
     0
  0
LTYPE
  5
43
330
5
100
AcDbSymbolTableRecord
100
AcDbLinetypeTableRecord
  2
DOT2
 70
     0
  3
Dot (.5x) ........................................
 72
    65
 73
     2
 40
0.635
 49
0.0
 74
     0
 49
-0.635
 74
     0
  0
ENDTAB
  0
TABLE
  2
LAYER
  5
2
330
0
100
AcDbSymbolTable
 70
     2
  0
LAYER
  5
10
330
2
100
AcDbSymbolTableRecord
100
AcDbLayerTableRecord
  2
0
 70
     0
 62
     7
  6
Continuous
370
    -3
390
F
347
3E
  0
LAYER
  5
44
330
2
100
AcDbSymbolTableRecord
100
AcDbLayerTableRecord
  2
SLD-0
 70
     0
 62
   179
  6
Continuous
370
    -3
390
F
347
3E
  0
ENDTAB
  0
TABLE
  2
STYLE
  5
3
330
0
100
AcDbSymbolTable
 70
     1
  0
STYLE
  5
11
330
3
100
AcDbSymbolTableRecord
100
AcDbTextStyleTableRecord
  2
STANDARD
 70
     0
 40
0.0
 41
1.0
 50
0.0
 71
     0
 42
3.5
  3
Century Gothic
  4

1001
ACAD
1000
CENTURY GOTHIC
1071
      256
  0
ENDTAB
  0
TABLE
  2
VIEW
  5
6
330
0
100
AcDbSymbolTable
 70
     0
  0
ENDTAB
  0
TABLE
  2
UCS
  5
7
330
0
100
AcDbSymbolTable
 70
     0
  0
ENDTAB
  0
TABLE
  2
APPID
  5
9
330
0
100
AcDbSymbolTable
 70
     1
  0
APPID
  5
12
330
9
100
AcDbSymbolTableRecord
100
AcDbRegAppTableRecord
  2
ACAD
 70
     0
  0
ENDTAB
  0
TABLE
  2
DIMSTYLE
  5
A
330
0
100
AcDbSymbolTable
 70
     1
100
AcDbDimStyleTable
  0
DIMSTYLE
105
27
330
A
100
AcDbSymbolTableRecord
100
AcDbDimStyleTableRecord
  2
ISO-25
 70
     0
 41
2.5
 42
0.625
 43
3.75
 44
1.25
 73
     0
 74
     0
 77
     1
 78
     8
140
2.5
141
2.5
143
0.0393700787
147
0.625
171
     3
172
     1
178
     0
271
     2
272
     2
274
     3
278
    44
283
     0
284
     8
340
11
  0
ENDTAB
  0
TABLE
  2
BLOCK_RECORD
  5
1
330
0
100
AcDbSymbolTable
 70
     5
  0
BLOCK_RECORD
  5
1F
330
1
100
AcDbSymbolTableRecord
100
AcDbBlockTableRecord
  2
*Model_Space
340
22
 70
     0
280
     1
281
     0
  0
BLOCK_RECORD
  5
1B
330
1
100
AcDbSymbolTableRecord
100
AcDbBlockTableRecord
  2
*Paper_Space
340
1E
 70
     0
280
     1
281
     0
  0
BLOCK_RECORD
  5
23
330
1
100
AcDbSymbolTableRecord
100
AcDbBlockTableRecord
  2
*Paper_Space0
340
26
 70
     0
280
     1
281
     0
  0
BLOCK_RECORD
  5
45
330
1
100
AcDbSymbolTableRecord
100
AcDbBlockTableRecord
  2
Block1
340
0
102
{BLKREFS
331
1A9
331
1AD
331
1AF
331
1B2
102
}
 70
     0
280
     1
281
     0
  0
BLOCK_RECORD
  5
8C
330
1
100
AcDbSymbolTableRecord
100
AcDbBlockTableRecord
  2
Block2
340
0
102
{BLKREFS
331
1AA
331
1AE
102
}
 70
     0
280
     1
281
     0
  0
BLOCK_RECORD
  5
D8
330
1
100
AcDbSymbolTableRecord
100
AcDbBlockTableRecord
  2
Block3
340
0
102
{BLKREFS
331
1AB
102
}
 70
     0
280
     1
281
     0
  0
BLOCK_RECORD
  5
196
330
1
100
AcDbSymbolTableRecord
100
AcDbBlockTableRecord
  2
Block4
340
0
102
{BLKREFS
331
1AC
331
1B0
331
1B1
331
1B3
102
}
 70
     0
280
     1
281
     0
  0
ENDTAB
  0
ENDSEC
  0
SECTION
  2
BLOCKS
  0
BLOCK
  5
20
330
1F
100
AcDbEntity
  8
0
100
AcDbBlockBegin
  2
*Model_Space
 70
     0
 10
0.0
 20
0.0
 30
0.0
  3
*Model_Space
  1

  0
ENDBLK
  5
21
330
1F
100
AcDbEntity
  8
0
100
AcDbBlockEnd
  0
BLOCK
  5
1C
330
1B
100
AcDbEntity
 67
     1
  8
0
100
AcDbBlockBegin
  2
*Paper_Space
 70
     0
 10
0.0
 20
0.0
 30
0.0
  3
*Paper_Space
  1

  0
ENDBLK
  5
1D
330
1B
100
AcDbEntity
 67
     1
  8
0
100
AcDbBlockEnd
  0
BLOCK
  5
24
330
23
100
AcDbEntity
  8
0
100
AcDbBlockBegin
  2
*Paper_Space0
 70
     0
 10
0.0
 20
0.0
 30
0.0
  3
*Paper_Space0
  1

  0
ENDBLK
  5
25
330
23
100
AcDbEntity
  8
0
100
AcDbBlockEnd
  0
BLOCK
  5
46
330
45
100
AcDbEntity
  8
0
100
AcDbBlockBegin
  2
Block1
 70
     0
 10
0.0
 20
0.0
 30
0.0
  3
Block1
  1

  0
ARC
  5
48
330
45
100
AcDbEntity
  8
SLD-0
  6
Continuous
 62
   250
420
  1644836
370
    15
100
AcDbCircle
 10
45.7596862465
 20
41.5
 30
0.0
 40
1.000000000020912
100
AcDbArc
 50
269.9999999969
 51
31.3120011941
  0
ARC
  5
49
330
45
100
AcDbEntity
  8
SLD-0
  6
Continuous
 62
   250
420
  1644836
370
    15
100
AcDbCircle
 10
43.5883708646
 20
46.0315990017
 30
0.0
 40
0.5000000000186697
100
AcDbArc
 50
31.3120012016
 51
153.8164392615
  0
ARC
  5
4A
330
45
100
AcDbEntity
  8
SLD-0
  6
Continuous
 62
   250
420
  1644836
370
    15
100
AcDbCircle
 10
41.9173369541
 20
41.5
 30
0.0
 40
1.000000000008933
100
AcDbArc
 50
153.8164392641
 51
270.0
  0
ARC
  5
4B
330
45
100
AcDbEntity
  8
SLD-0
  6
Continuous
 62
   250
420
  1644836
370
    15
100
AcDbCircle
 10
54.5342357893
 20
41.5
 30
0.0
 40
1.000000000020911
100
AcDbArc
 50
148.6879988093
 51
270.0
  0
ARC
  5
4C
330
45
100
AcDbEntity
  8
SLD-0
  6
Continuous
 62
   250
420
  1644836
370
    15
100
AcDbCircle
 10
58.3765850816
 20
41.5
 30
0.0
 40
1.000000000008928
100
AcDbArc
 50
269.9999999988
 51
26.1835607353
  0
ARC
  5
4D
330
45
100
AcDbEntity
  8
SLD-0
  6
Continuous
 62
   250
420
  1644836
370
    15
100
AcDbCircle
 10
56.7055511712
 20
46.0315990017
 30
0.0
 40
0.5000000000613888
100
AcDbArc
 50
26.1835607385
 51
148.6879988044
  0
ARC
  5
4E
330
45
100
AcDbEntity
  8
SLD-0
  6
Continuous
 62
   250
420
  1644836
370
    15
100
AcDbCircle
 10
87.6
 20
44.4121122136
 30
0.0
 40
1.0
100
AcDbArc
 50
90.0
 51
180.0
  0
ARC
  5
4F
330
45
100
AcDbEntity
  8
SLD-0
  6
Continuous
 62
   250
420
  1644836
370
    15
100
AcDbCircle
 10
88.6
 20
40.0795959945
 30
0.0
 40
2.000000000002379
100
AcDbArc
 50
180.0
 51
216.91202796
  0
ARC
  5
50
330
45
100
AcDbEntity
  8
SLD-0
  6
Continuous
 62
   250
420
  1644836
370
    15
100
AcDbCircle
 10
89.3703848001
 20
34.8914015363
 30
0.0
 40
0.5000000000287596
100
AcDbArc
 50
350.1483313685
 51
36.9120279628
  0
ARC
  5
51
330
45
100
AcDbEntity
  8
SLD-0
  6
Continuous
 62
   250
420
  1644836
370
    15
100
AcDbCircle
 10
89.6943127623
 20
30.9121122136
 30
0.0
 40
0.5000000000031584
100
AcDbArc
 50
170.1483313685
 51
270.0
  0
ARC
  5
52
330
45
100
AcDbEntity
  8
SLD-0
  6
Continuous
 62
   250
420
  1644836
370
    15
100
AcDbCircle
 10
81.9682468517
 20
24.4121122136
 30
0.0
 40
1.999999999963364
100
AcDbArc
 50
170.148331368
 51
270.0
  0
ARC
  5
53
330
45
100
AcDbEntity
  8
SLD-0
  6
Continuous
 62
   250
420
  1644836
370
    15
100
AcDbCircle
 10
76.062531718
 20
31.3167522873
 30
0.0
 40
4.999999999985306
100
AcDbArc
 50
350.1483313661
 51
36.9120279603
  0
ARC
  5
54
330
45
100
AcDbEntity
  8
SLD-0
  6
Continuous
 62
   250
420
  1644836
370
    15
100
AcDbCircle
 10
68.318410234
 20
44.9565148254
 30
0.0
 40
3.000000000015799
100
AcDbArc
 50
36.9120279605
 51
134.0953696822
  0
ARC
  5
55
330
45
100
AcDbEntity
  8
SLD-0
  6
Continuous
 62
   250
420
  1644836
370
    15
100
AcDbCircle
 10
64.6469610179
 20
42.7916119838
 30
0.0
 40
2.000000000021849
100
AcDbArc
 50
134.0953696808
 51
180.0
  0
ARC
  5
56
330
45
100
AcDbEntity
  8
SLD-0
  6
Continuous
 62
   250
420
  1644836
370
    15
100
AcDbCircle
 10
60.6469610179
 20
40.0000000001
 30
0.0
 40
2.0
100
AcDbArc
 50
270.0
 51
0.0
  0
ARC
  5
57
330
45
100
AcDbEntity
  8
SLD-0
  6
Continuous
 62
   250
420
  1644836
370
    15
100
AcDbCircle
 10
39.6469610179
 20
40.0000000001
 30
0.0
 40
2.0
100
AcDbArc
 50
180.0
 51
270.0
  0
ARC
  5
58
330
45
100
AcDbEntity
  8
SLD-0
  6
Continuous
 62
   250
420
  1644836
370
    15
100
AcDbCircle
 10
35.6469610179
 20
43.7417207287
 30
0.0
 40
1.999999999985939
100
AcDbArc
 50
0.0
 51
44.0953696828
  0
ARC
  5
59
330
45
100
AcDbEntity
  8
SLD-0
  6
Continuous
 62
   250
420
  1644836
370
    15
100
AcDbCircle
 10
31.1569850333
 20
48.3757658243
 30
0.0
 40
1.999999999985941
100
AcDbArc
 50
44.0953696828
 51
90.0
  0
ARC
  5
5A
330
45
100
AcDbEntity
  8
SLD-0
  6
Continuous
 62
   250
420
  1644836
370
    15
100
AcDbCircle
 10
23.4972404584
 20
48.9392038741
 30
0.0
 40
1.436561950141989
100
AcDbArc
 50
90.0
 51
173.0932022211
  0
ARC
  5
5B
330
45
100
AcDbEntity
  8
SLD-0
  6
Continuous
 62
   250
420
  1644836
370
    15
100
AcDbCircle
 10
62.5672893517
 20
44.206505091
 30
0.0
 40
40.79221158647227
100
AcDbArc
 50
173.0932022211
 51
188.751500324
  0
ARC
  5
5C
330
45
100
AcDbEntity
  8
SLD-0
  6
Continuous
 62
   250
420
  1644836
370
    15
100
AcDbCircle
 10
-34.75
 20
38.0
 30
0.0
 40
39.99999999998035
100
AcDbArc
 50
0.0
 51
18.8841267406
  0
LINE
  5
5D
330
45
100
AcDbEntity
  8
SLD-0
  6
Continuous
 62
   250
420
  1644836
370
    15
100
AcDbLine
 10
11.5
 20
65.0
 30
0.0
 11
11.5
 21
50.0
 31
0.0
  0
LINE
  5
5E
330
45
100
AcDbEntity
  8
SLD-0
  6
Continuous
 62
   250
420
  1644836
370
    15
100
AcDbLine
 10
11.5
 20
50.0
 30
0.0
 11
16.5
 21
50.0
 31
0.0
  0
LINE
  5
5F
330
45
100
AcDbEntity
  8
SLD-0
  6
Continuous
 62
   250
420
  1644836
370
    15
100
AcDbLine
 10
16.5
 20
50.0
 30
0.0
 11
16.5
 21
65.0
 31
0.0
  0
LINE
  5
60
330
45
100
AcDbEntity
  8
SLD-0
  6
Continuous
 62
   250
420
  1644836
370
    15
100
AcDbLine
 10
41.9173369541
 20
40.5
 30
0.0
 11
45.7596862464
 21
40.5
 31
0.0
  0
LINE
  5
61
330
45
100
AcDbEntity
  8
SLD-0
  6
Continuous
 62
   250
420
  1644836
370
    15
100
AcDbLine
 10
46.6140362392
 20
42.0196980758
 30
0.0
 11
44.0155458609
 21
46.2914480397
 31
0.0
  0
LINE
  5
62
330
45
100
AcDbEntity
  8
SLD-0
  6
Continuous
 62
   250
420
  1644836
370
    15
100
AcDbLine
 10
43.1396783599
 20
46.2522231987
 30
0.0
 11
41.0199519448
 21
41.9412483939
 31
0.0
  0
LINE
  5
63
330
45
100
AcDbEntity
  8
SLD-0
  6
Continuous
 62
   250
420
  1644836
370
    15
100
AcDbLine
 10
56.2783761748
 20
46.2914480396
 30
0.0
 11
53.6798857965
 21
42.0196980757
 31
0.0
  0
LINE
  5
64
330
45
100
AcDbEntity
  8
SLD-0
  6
Continuous
 62
   250
420
  1644836
370
    15
100
AcDbLine
 10
54.5342357893
 20
40.5
 30
0.0
 11
58.3765850816
 21
40.5
 31
0.0
  0
LINE
  5
65
330
45
100
AcDbEntity
  8
SLD-0
  6
Continuous
 62
   250
420
  1644836
370
    15
100
AcDbLine
 10
59.2739700909
 20
41.9412483939
 30
0.0
 11
57.1542436759
 21
46.2522231987
 31
0.0
  0
LINE
  5
66
330
45
100
AcDbEntity
  8
SLD-0
  6
Continuous
 62
   250
420
  1644836
370
    15
100
AcDbLine
 10
6.5
 20
60.0
 30
0.0
 11
0.0
 21
60.0
 31
0.0
  0
LINE
  5
67
330
45
100
AcDbEntity
  8
SLD-0
  6
Continuous
 62
   250
420
  1644836
370
    15
100
AcDbLine
 10
6.5
 20
65.0
 30
0.0
 11
6.5
 21
60.0
 31
0.0
  0
LINE
  5
68
330
45
100
AcDbEntity
  8
SLD-0
  6
Continuous
 62
   250
420
  1644836
370
    15
100
AcDbLine
 10
11.5
 20
65.0
 30
0.0
 11
6.5
 21
65.0
 31
0.0
  0
LINE
  5
69
330
45
100
AcDbEntity
  8
SLD-0
  6
Continuous
 62
   250
420
  1644836
370
    15
100
AcDbLine
 10
21.5
 20
60.0
 30
0.0
 11
21.5
 21
65.0
 31
0.0
  0
LINE
  5
6A
330
45
100
AcDbEntity
  8
SLD-0
  6
Continuous
 62
   250
420
  1644836
370
    15
100
AcDbLine
 10
48.1469610179
 20
60.0
 30
0.0
 11
21.5
 21
60.0
 31
0.0
  0
LINE
  5
6B
330
45
100
AcDbEntity
  8
SLD-0
  6
Continuous
 62
   250
420
  1644836
370
    15
100
AcDbLine
 10
48.1469610179
 20
57.0
 30
0.0
 11
48.1469610179
 21
60.0
 31
0.0
  0
LINE
  5
6C
330
45
100
AcDbEntity
  8
SLD-0
  6
Continuous
 62
   250
420
  1644836
370
    15
100
AcDbLine
 10
52.1469610179
 20
57.0
 30
0.0
 11
48.1469610179
 21
57.0
 31
0.0
  0
LINE
  5
6D
330
45
100
AcDbEntity
  8
SLD-0
  6
Continuous
 62
   250
420
  1644836
370
    15
100
AcDbLine
 10
52.1469610179
 20
60.0
 30
0.0
 11
52.1469610179
 21
57.0
 31
0.0
  0
LINE
  5
6E
330
45
100
AcDbEntity
  8
SLD-0
  6
Continuous
 62
   250
420
  1644836
370
    15
100
AcDbLine
 10
71.5
 20
60.0
 30
0.0
 11
52.1469610179
 21
60.0
 31
0.0
  0
LINE
  5
6F
330
45
100
AcDbEntity
  8
SLD-0
  6
Continuous
 62
   250
420
  1644836
370
    15
100
AcDbLine
 10
71.5
 20
65.0
 30
0.0
 11
71.5
 21
60.0
 31
0.0
  0
LINE
  5
70
330
45
100
AcDbEntity
  8
SLD-0
  6
Continuous
 62
   250
420
  1644836
370
    15
100
AcDbLine
 10
86.5
 20
65.0
 30
0.0
 11
71.5
 21
65.0
 31
0.0
  0
LINE
  5
71
330
45
100
AcDbEntity
  8
SLD-0
  6
Continuous
 62
   250
420
  1644836
370
    15
100
AcDbLine
 10
86.5
 20
60.0
 30
0.0
 11
86.5
 21
65.0
 31
0.0
  0
LINE
  5
72
330
45
100
AcDbEntity
  8
SLD-0
  6
Continuous
 62
   250
420
  1644836
370
    15
100
AcDbLine
 10
116.5
 20
60.0
 30
0.0
 11
86.5
 21
60.0
 31
0.0
  0
LINE
  5
73
330
45
100
AcDbEntity
  8
SLD-0
  6
Continuous
 62
   250
420
  1644836
370
    15
100
AcDbLine
 10
116.5
 20
65.0
 30
0.0
 11
116.5
 21
60.0
 31
0.0
  0
LINE
  5
74
330
45
100
AcDbEntity
  8
SLD-0
  6
Continuous
 62
   250
420
  1644836
370
    15
100
AcDbLine
 10
126.5
 20
65.0
 30
0.0
 11
116.5
 21
65.0
 31
0.0
  0
LINE
  5
75
330
45
100
AcDbEntity
  8
SLD-0
  6
Continuous
 62
   250
420
  1644836
370
    15
100
AcDbLine
 10
126.5
 20
60.4121122135
 30
0.0
 11
126.5
 21
65.0
 31
0.0
  0
LINE
  5
76
330
45
100
AcDbEntity
  8
SLD-0
  6
Continuous
 62
   250
420
  1644836
370
    15
100
AcDbLine
 10
131.6
 20
60.4121122135
 30
0.0
 11
126.5
 21
60.4121122135
 31
0.0
  0
LINE
  5
77
330
45
100
AcDbEntity
  8
SLD-0
  6
Continuous
 62
   250
420
  1644836
370
    15
100
AcDbLine
 10
131.6
 20
45.4121122136
 30
0.0
 11
131.6
 21
60.4121122135
 31
0.0
  0
LINE
  5
78
330
45
100
AcDbEntity
  8
SLD-0
  6
Continuous
 62
   250
420
  1644836
370
    15
100
AcDbLine
 10
87.6
 20
45.4121122136
 30
0.0
 11
131.6
 21
45.4121122136
 31
0.0
  0
LINE
  5
79
330
45
100
AcDbEntity
  8
SLD-0
  6
Continuous
 62
   250
420
  1644836
370
    15
100
AcDbLine
 10
86.6
 20
40.0795959945
 30
0.0
 11
86.6
 21
44.4121122136
 31
0.0
  0
LINE
  5
7A
330
45
100
AcDbEntity
  8
SLD-0
  6
Continuous
 62
   250
420
  1644836
370
    15
100
AcDbLine
 10
89.7701640982
 20
35.1916955803
 30
0.0
 11
87.0008828077
 21
38.8784198187
 31
0.0
  0
LINE
  5
7B
330
45
100
AcDbEntity
  8
SLD-0
  6
Continuous
 62
   250
420
  1644836
370
    15
100
AcDbLine
 10
89.2016857598
 20
30.9976612429
 30
0.0
 11
89.8630118026
 21
34.805852507
 31
0.0
  0
LINE
  5
7C
330
45
100
AcDbEntity
  8
SLD-0
  6
Continuous
 62
   250
420
  1644836
370
    15
100
AcDbLine
 10
93.1
 20
30.4121122136
 30
0.0
 11
89.6943127623
 21
30.4121122136
 31
0.0
  0
LINE
  5
7D
330
45
100
AcDbEntity
  8
SLD-0
  6
Continuous
 62
   250
420
  1644836
370
    15
100
AcDbLine
 10
93.1
 20
22.4121122136
 30
0.0
 11
93.1
 21
30.4121122136
 31
0.0
  0
LINE
  5
7E
330
45
100
AcDbEntity
  8
SLD-0
  6
Continuous
 62
   250
420
  1644836
370
    15
100
AcDbLine
 10
81.9682468517
 20
22.4121122136
 30
0.0
 11
93.1
 21
22.4121122136
 31
0.0
  0
LINE
  5
7F
330
45
100
AcDbEntity
  8
SLD-0
  6
Continuous
 62
   250
420
  1644836
370
    15
100
AcDbLine
 10
80.9888017429
 20
30.4612619941
 30
0.0
 11
79.9977388418
 21
24.7543083308
 31
0.0
  0
LINE
  5
80
330
45
100
AcDbEntity
  8
SLD-0
  6
Continuous
 62
   250
420
  1644836
370
    15
100
AcDbLine
 10
70.7170860224
 20
46.7582790891
 30
0.0
 11
80.0603246987
 21
34.3196927268
 31
0.0
  0
LINE
  5
81
330
45
100
AcDbEntity
  8
SLD-0
  6
Continuous
 62
   250
420
  1644836
370
    15
100
AcDbLine
 10
63.255251499
 20
44.227977054
 30
0.0
 11
66.2308459556
 21
47.1110624307
 31
0.0
  0
LINE
  5
82
330
45
100
AcDbEntity
  8
SLD-0
  6
Continuous
 62
   250
420
  1644836
370
    15
100
AcDbLine
 10
62.6469610179
 20
40.0000000001
 30
0.0
 11
62.6469610179
 21
42.7916119838
 31
0.0
  0
LINE
  5
83
330
45
100
AcDbEntity
  8
SLD-0
  6
Continuous
 62
   250
420
  1644836
370
    15
100
AcDbLine
 10
39.6469610179
 20
38.0000000001
 30
0.0
 11
60.6469610179
 21
38.0000000001
 31
0.0
  0
LINE
  5
84
330
45
100
AcDbEntity
  8
SLD-0
  6
Continuous
 62
   250
420
  1644836
370
    15
100
AcDbLine
 10
37.6469610179
 20
43.7417207287
 30
0.0
 11
37.6469610179
 21
40.0000000001
 31
0.0
  0
LINE
  5
85
330
45
100
AcDbEntity
  8
SLD-0
  6
Continuous
 62
   250
420
  1644836
370
    15
100
AcDbLine
 10
32.5933501035
 20
49.7674753432
 30
0.0
 11
37.0833260881
 21
45.1334302476
 31
0.0
  0
LINE
  5
86
330
45
100
AcDbEntity
  8
SLD-0
  6
Continuous
 62
   250
420
  1644836
370
    15
100
AcDbLine
 10
23.4972404584
 20
50.3757658242
 30
0.0
 11
31.1569850333
 21
50.3757658242
 31
0.0
  0
LINE
  5
87
330
45
100
AcDbEntity
  8
SLD-0
  6
Continuous
 62
   250
420
  1644836
370
    15
100
AcDbLine
 10
22.25
 20
0.0
 30
0.0
 11
22.25
 21
38.0
 31
0.0
  0
LINE
  5
88
330
45
100
AcDbEntity
  8
SLD-0
  6
Continuous
 62
   250
420
  1644836
370
    15
100
AcDbLine
 10
5.25
 20
0.0
 30
0.0
 11
22.25
 21
0.0
 31
0.0
  0
LINE
  5
89
330
45
100
AcDbEntity
  8
SLD-0
  6
Continuous
 62
   250
420
  1644836
370
    15
100
AcDbLine
 10
5.25
 20
38.0
 30
0.0
 11
5.25
 21
0.0
 31
0.0
  0
LINE
  5
8A
330
45
100
AcDbEntity
  8
SLD-0
  6
Continuous
 62
   250
420
  1644836
370
    15
100
AcDbLine
 10
0.0
 20
60.0
 30
0.0
 11
3.0970024323
 21
50.9462120671
 31
0.0
  0
LINE
  5
8B
330
45
100
AcDbEntity
  8
SLD-0
  6
Continuous
 62
   250
420
  1644836
370
    15
100
AcDbLine
 10
21.5
 20
65.0
 30
0.0
 11
16.5
 21
65.0
 31
0.0
  0
ENDBLK
  5
47
330
45
100
AcDbEntity
  8
0
100
AcDbBlockEnd
  0
BLOCK
  5
8D
330
8C
100
AcDbEntity
  8
0
100
AcDbBlockBegin
  2
Block2
 70
     0
 10
0.0
 20
0.0
 30
0.0
  3
Block2
  1

  0
CIRCLE
  5
8F
330
8C
100
AcDbEntity
  8
SLD-0
  6
Continuous
 62
   250
420
  1644836
370
    15
100
AcDbCircle
 10
46.8465224357
 20
46.8465224358
 30
0.0
 40
4.99999999999703
  0
ARC
  5
90
330
8C
100
AcDbEntity
  8
SLD-0
  6
Continuous
 62
   250
420
  1644836
370
    15
100
AcDbCircle
 10
40.2987311661
 20
79.1876295921
 30
0.0
 40
0.5000000000171305
100
AcDbArc
 50
310.8693152396
 51
30.0000000033
  0
ARC
  5
91
330
8C
100
AcDbEntity
  8
SLD-0
  6
Continuous
 62
   250
420
  1644836
370
    15
100
AcDbCircle
 10
34.8693627377
 20
88.5915715632
 30
0.0
 40
0.5000000000067422
100
AcDbArc
 50
29.9999999996
 51
119.9999999996
  0
ARC
  5
92
330
8C
100
AcDbEntity
  8
SLD-0
  6
Continuous
 62
   250
420
  1644836
370
    15
100
AcDbCircle
 10
33.1373119301
 20
87.5915715632
 30
0.0
 40
0.5000000000067361
100
AcDbArc
 50
119.9999999996
 51
209.9999999996
  0
ARC
  5
93
330
8C
100
AcDbEntity
  8
SLD-0
  6
Continuous
 62
   250
420
  1644836
370
    15
100
AcDbCircle
 10
38.7586946533
 20
77.8550510777
 30
0.0
 40
0.4999999999844127
100
AcDbArc
 50
209.9999999996
 51
310.8693152402
  0
ARC
  5
94
330
8C
100
AcDbEntity
  8
SLD-0
  6
Continuous
 62
   250
420
  1644836
370
    15
100
AcDbCircle
 10
16.6828292582
 20
78.0915715632
 30
0.0
 40
0.5000000000067545
100
AcDbArc
 50
119.9999999996
 51
209.9999999996
  0
ARC
  5
95
330
8C
100
AcDbEntity
  8
SLD-0
  6
Continuous
 62
   250
420
  1644836
370
    15
100
AcDbCircle
 10
22.1121976866
 20
68.6876295921
 30
0.0
 40
0.5000000000071332
100
AcDbArc
 50
209.9999999996
 51
289.1306847411
  0
ARC
  5
96
330
8C
100
AcDbEntity
  8
SLD-0
  6
Continuous
 62
   250
420
  1644836
370
    15
100
AcDbCircle
 10
24.036262789
 20
69.3550510778
 30
0.0
 40
0.4999999999762921
100
AcDbArc
 50
289.1306847412
 51
30.0000000006
  0
ARC
  5
97
330
8C
100
AcDbEntity
  8
SLD-0
  6
Continuous
 62
   250
420
  1644836
370
    15
100
AcDbCircle
 10
18.4148800658
 20
79.0915715632
 30
0.0
 40
0.5000000000067361
100
AcDbArc
 50
29.9999999996
 51
119.9999999996
  0
ARC
  5
98
330
8C
100
AcDbEntity
  8
SLD-0
  6
Continuous
 62
   250
420
  1644836
370
    15
100
AcDbCircle
 10
53.3943137053
 20
14.5054152795
 30
0.0
 40
0.5000000000171388
100
AcDbArc
 50
130.8693152488
 51
209.9999999996
  0
ARC
  5
99
330
8C
100
AcDbEntity
  8
SLD-0
  6
Continuous
 62
   250
420
  1644836
370
    15
100
AcDbCircle
 10
58.8236821337
 20
5.1014733084
 30
0.0
 40
0.5000000000067322
100
AcDbArc
 50
209.9999999996
 51
299.9999999996
  0
ARC
  5
9A
330
8C
100
AcDbEntity
  8
SLD-0
  6
Continuous
 62
   250
420
  1644836
370
    15
100
AcDbCircle
 10
60.5557329413
 20
6.1014733084
 30
0.0
 40
0.5000000000067473
100
AcDbArc
 50
299.9999999991
 51
29.9999999935
  0
ARC
  5
9B
330
8C
100
AcDbEntity
  8
SLD-0
  6
Continuous
 62
   250
420
  1644836
370
    15
100
AcDbCircle
 10
54.9343502181
 20
15.8379937939
 30
0.0
 40
0.4999999999793277
100
AcDbArc
 50
29.9999999996
 51
130.8693152563
  0
ARC
  5
9C
330
8C
100
AcDbEntity
  8
SLD-0
  6
Continuous
 62
   250
420
  1644836
370
    15
100
AcDbCircle
 10
77.0102156132
 20
15.6014733084
 30
0.0
 40
0.5000000000067589
100
AcDbArc
 50
300.0000000032
 51
30.0000000049
  0
ARC
  5
9D
330
8C
100
AcDbEntity
  8
SLD-0
  6
Continuous
 62
   250
420
  1644836
370
    15
100
AcDbCircle
 10
71.5808471847
 20
25.0054152796
 30
0.0
 40
0.5000000000235215
100
AcDbArc
 50
29.9999999996
 51
109.1306847519
  0
ARC
  5
9E
330
8C
100
AcDbEntity
  8
SLD-0
  6
Continuous
 62
   250
420
  1644836
370
    15
100
AcDbCircle
 10
69.6567820823
 20
24.3379937939
 30
0.0
 40
0.4999999999598951
100
AcDbArc
 50
109.1306847449
 51
209.9999999996
  0
ARC
  5
9F
330
8C
100
AcDbEntity
  8
SLD-0
  6
Continuous
 62
   250
420
  1644836
370
    15
100
AcDbCircle
 10
75.2781648056
 20
14.6014733084
 30
0.0
 40
0.5000000000067314
100
AcDbArc
 50
209.9999999996
 51
299.9999999996
  0
ARC
  5
A0
330
8C
100
AcDbEntity
  8
SLD-0
  6
Continuous
 62
   250
420
  1644836
370
    15
100
AcDbCircle
 10
43.1932391722
 20
82.1741946627
 30
0.0
 40
0.500000000002904
100
AcDbArc
 50
209.9999999996
 51
319.177228603
  0
ARC
  5
A1
330
8C
100
AcDbEntity
  8
SLD-0
  6
Continuous
 62
   250
420
  1644836
370
    15
100
AcDbCircle
 10
13.4889969645
 20
107.8348173406
 30
0.0
 40
39.75314715217984
100
AcDbArc
 50
319.1772286029
 51
339.1612145777
  0
ARC
  5
A2
330
8C
100
AcDbEntity
  8
SLD-0
  6
Continuous
 62
   250
420
  1644836
370
    15
100
AcDbCircle
 10
105.8364360588
 20
80.9043649455
 30
0.0
 40
39.75314715217336
100
AcDbArc
 50
167.7864384125
 51
252.2135615874
  0
ARC
  5
A3
330
8C
100
AcDbEntity
  8
SLD-0
  6
Continuous
 62
   250
420
  1644836
370
    15
100
AcDbCircle
 10
82.9851724206
 20
-12.5360894822
 30
0.0
 40
39.753147152137
100
AcDbArc
 50
80.8387854218
 51
100.8227713964
  0
ARC
  5
A4
330
8C
100
AcDbEntity
  8
SLD-0
  6
Continuous
 62
   250
420
  1644836
370
    15
100
AcDbCircle
 10
75.6145424089
 20
26.0188502089
 30
0.0
 40
0.4999999999625482
100
AcDbArc
 50
100.8227713915
 51
209.9999999996
  0
ARC
  5
A5
330
8C
100
AcDbEntity
  8
SLD-0
  6
Continuous
 62
   250
420
  1644836
370
    15
100
AcDbCircle
 10
80.1672641578
 20
15.1333048272
 30
0.0
 40
1.00000000000674
100
AcDbArc
 50
316.415961702
 51
29.9999999996
  0
ARC
  5
A6
330
8C
100
AcDbEntity
  8
SLD-0
  6
Continuous
 62
   250
420
  1644836
370
    15
100
AcDbCircle
 10
57.6506036595
 20
2.1333048273
 30
0.0
 40
1.000000000006741
100
AcDbArc
 50
209.9999999996
 51
283.584038298
  0
ARC
  5
A7
330
8C
100
AcDbEntity
  8
SLD-0
  6
Continuous
 62
   250
420
  1644836
370
    15
100
AcDbCircle
 10
50.4998056993
 20
11.518850209
 30
0.0
 40
0.5000000000028669
100
AcDbArc
 50
29.9999999996
 51
139.1772286035
  0
ARC
  5
A8
330
8C
100
AcDbEntity
  8
SLD-0
  6
Continuous
 62
   250
420
  1644836
370
    15
100
AcDbCircle
 10
80.2040479074
 20
-14.1417724685
 30
0.0
 40
39.75314715219531
100
AcDbArc
 50
139.1772286037
 51
159.1612145784
  0
ARC
  5
A9
330
8C
100
AcDbEntity
  8
SLD-0
  6
Continuous
 62
   250
420
  1644836
370
    15
100
AcDbCircle
 10
-12.1433911874
 20
12.7886799261
 30
0.0
 40
39.7531471521735
100
AcDbArc
 50
347.7864384125
 51
72.2135615873
  0
ARC
  5
AA
330
8C
100
AcDbEntity
  8
SLD-0
  6
Continuous
 62
   250
420
  1644836
370
    15
100
AcDbCircle
 10
46.8465224357
 20
46.8465224358
 30
0.0
 40
46.99999999995973
100
AcDbArc
 50
154.6315824835
 51
161.9509131848
  0
ARC
  5
AB
330
8C
100
AcDbEntity
  8
SLD-0
  6
Continuous
 62
   250
420
  1644836
370
    15
100
AcDbCircle
 10
10.7078724503
 20
106.2291343538
 30
0.0
 40
39.7531471522173
100
AcDbArc
 50
260.8387854224
 51
280.8227713971
  0
ARC
  5
AC
330
8C
100
AcDbEntity
  8
SLD-0
  6
Continuous
 62
   250
420
  1644836
370
    15
100
AcDbCircle
 10
18.0785024624
 20
67.6741946628
 30
0.0
 40
0.4999999999926431
100
AcDbArc
 50
280.8227714
 51
29.9999999996
  0
ARC
  5
AD
330
8C
100
AcDbEntity
  8
SLD-0
  6
Continuous
 62
   250
420
  1644836
370
    15
100
AcDbCircle
 10
13.5257807135
 20
78.5597400445
 30
0.0
 40
0.9999999999634663
100
AcDbArc
 50
136.415961702
 51
210.0000000024
  0
ARC
  5
AE
330
8C
100
AcDbEntity
  8
SLD-0
  6
Continuous
 62
   250
420
  1644836
370
    15
100
AcDbCircle
 10
36.042441212
 20
91.5597400444
 30
0.0
 40
1.000000000006754
100
AcDbArc
 50
29.9999999996
 51
103.584038298
  0
ARC
  5
AF
330
8C
100
AcDbEntity
  8
SLD-0
  6
Continuous
 62
   250
420
  1644836
370
    15
100
AcDbCircle
 10
46.8465224357
 20
46.8465224358
 30
0.0
 40
47.00000000002186
100
AcDbArc
 50
244.6315824835
 51
251.9509131848
  0
ARC
  5
B0
330
8C
100
AcDbEntity
  8
SLD-0
  6
Continuous
 62
   250
420
  1644836
370
    15
100
AcDbCircle
 10
46.8465224357
 20
46.8465224358
 30
0.0
 40
47.00000000005538
100
AcDbArc
 50
334.6315824833
 51
341.9509131848
  0
ARC
  5
B1
330
8C
100
AcDbEntity
  8
SLD-0
  6
Continuous
 62
   250
420
  1644836
370
    15
100
AcDbCircle
 10
46.8465224357
 20
46.8465224358
 30
0.0
 40
47.00000000004036
100
AcDbArc
 50
64.6315824835
 51
71.9509131848
  0
ARC
  5
B2
330
8C
100
AcDbEntity
  8
SLD-0
  6
Continuous
 62
   250
420
  1644836
370
    15
100
AcDbCircle
 10
46.8465224357
 20
46.8465224358
 30
0.0
 40
47.00000000004842
100
AcDbArc
 50
78.0490868151
 51
85.3684175164
  0
ARC
  5
B3
330
8C
100
AcDbEntity
  8
SLD-0
  6
Continuous
 62
   250
420
  1644836
370
    15
100
AcDbCircle
 10
46.8465224357
 20
46.8465224358
 30
0.0
 40
47.00000000002868
100
AcDbArc
 50
348.0490868152
 51
355.3684175164
  0
ARC
  5
B4
330
8C
100
AcDbEntity
  8
SLD-0
  6
Continuous
 62
   250
420
  1644836
370
    15
100
AcDbCircle
 10
46.8465224357
 20
46.8465224358
 30
0.0
 40
47.00000000001118
100
AcDbArc
 50
258.0490868152
 51
265.3684175168
  0
ARC
  5
B5
330
8C
100
AcDbEntity
  8
SLD-0
  6
Continuous
 62
   250
420
  1644836
370
    15
100
AcDbCircle
 10
46.8465224357
 20
46.8465224358
 30
0.0
 40
46.99999999994505
100
AcDbArc
 50
168.0490868152
 51
175.3684175164
  0
ARC
  5
B6
330
8C
100
AcDbEntity
  8
SLD-0
  6
Continuous
 62
   250
420
  1644836
370
    15
100
AcDbCircle
 10
46.8465224357
 20
46.8465224358
 30
0.0
 40
47.0000000000198
100
AcDbArc
 50
103.5840382979
 51
136.415961702
  0
ARC
  5
B7
330
8C
100
AcDbEntity
  8
SLD-0
  6
Continuous
 62
   250
420
  1644836
370
    15
100
AcDbCircle
 10
46.8465224357
 20
46.8465224358
 30
0.0
 40
47.00000000003149
100
AcDbArc
 50
283.584038298
 51
316.415961702
  0
LINE
  5
B8
330
8C
100
AcDbEntity
  8
SLD-0
  6
Continuous
 62
   250
420
  1644836
370
    15
100
AcDbLine
 10
39.0858626145
 20
77.4769490741
 30
0.0
 11
40.6258991273
 21
78.8095275885
 31
0.0
  0
LINE
  5
B9
330
8C
100
AcDbEntity
  8
SLD-0
  6
Continuous
 62
   250
420
  1644836
370
    15
100
AcDbLine
 10
40.731743868
 20
79.4376295922
 30
0.0
 11
35.3023754396
 21
88.8415715632
 31
0.0
  0
LINE
  5
BA
330
8C
100
AcDbEntity
  8
SLD-0
  6
Continuous
 62
   250
420
  1644836
370
    15
100
AcDbLine
 10
34.6193627377
 20
89.0245842651
 30
0.0
 11
32.8873119301
 21
88.0245842651
 31
0.0
  0
LINE
  5
BB
330
8C
100
AcDbEntity
  8
SLD-0
  6
Continuous
 62
   250
420
  1644836
370
    15
100
AcDbLine
 10
32.7042992282
 20
87.3415715632
 30
0.0
 11
38.3256819514
 21
77.6050510777
 31
0.0
  0
LINE
  5
BC
330
8C
100
AcDbEntity
  8
SLD-0
  6
Continuous
 62
   250
420
  1644836
370
    15
100
AcDbLine
 10
18.1648800658
 20
79.5245842651
 30
0.0
 11
16.4328292582
 21
78.5245842651
 31
0.0
  0
LINE
  5
BD
330
8C
100
AcDbEntity
  8
SLD-0
  6
Continuous
 62
   250
420
  1644836
370
    15
100
AcDbLine
 10
16.2498165563
 20
77.8415715632
 30
0.0
 11
21.6791849847
 21
68.4376295921
 31
0.0
  0
LINE
  5
BE
330
8C
100
AcDbEntity
  8
SLD-0
  6
Continuous
 62
   250
420
  1644836
370
    15
100
AcDbLine
 10
22.2760596462
 20
68.2152428245
 30
0.0
 11
24.2001247486
 21
68.8826643102
 31
0.0
  0
LINE
  5
BF
330
8C
100
AcDbEntity
  8
SLD-0
  6
Continuous
 62
   250
420
  1644836
370
    15
100
AcDbLine
 10
24.4692754909
 20
69.6050510778
 30
0.0
 11
18.8478927677
 21
79.3415715632
 31
0.0
  0
LINE
  5
C0
330
8C
100
AcDbEntity
  8
SLD-0
  6
Continuous
 62
   250
420
  1644836
370
    15
100
AcDbLine
 10
54.6071822568
 20
16.2160957974
 30
0.0
 11
53.067145744
 21
14.8835172831
 31
0.0
  0
LINE
  5
C1
330
8C
100
AcDbEntity
  8
SLD-0
  6
Continuous
 62
   250
420
  1644836
370
    15
100
AcDbLine
 10
52.9613010034
 20
14.2554152795
 30
0.0
 11
58.3906694318
 21
4.8514733084
 31
0.0
  0
LINE
  5
C2
330
8C
100
AcDbEntity
  8
SLD-0
  6
Continuous
 62
   250
420
  1644836
370
    15
100
AcDbLine
 10
59.0736821337
 20
4.6684606065
 30
0.0
 11
60.8057329413
 21
5.6684606065
 31
0.0
  0
LINE
  5
C3
330
8C
100
AcDbEntity
  8
SLD-0
  6
Continuous
 62
   250
420
  1644836
370
    15
100
AcDbLine
 10
60.9887456433
 20
6.3514733084
 30
0.0
 11
55.36736292
 21
16.0879937939
 31
0.0
  0
LINE
  5
C4
330
8C
100
AcDbEntity
  8
SLD-0
  6
Continuous
 62
   250
420
  1644836
370
    15
100
AcDbLine
 10
75.5281648056
 20
14.1684606065
 30
0.0
 11
77.2602156132
 21
15.1684606065
 31
0.0
  0
LINE
  5
C5
330
8C
100
AcDbEntity
  8
SLD-0
  6
Continuous
 62
   250
420
  1644836
370
    15
100
AcDbLine
 10
77.4432283151
 20
15.8514733084
 30
0.0
 11
72.0138598866
 21
25.2554152796
 31
0.0
  0
LINE
  5
C6
330
8C
100
AcDbEntity
  8
SLD-0
  6
Continuous
 62
   250
420
  1644836
370
    15
100
AcDbLine
 10
71.416985225
 20
25.4778020471
 30
0.0
 11
69.4929201227
 21
24.8103805614
 31
0.0
  0
LINE
  5
C7
330
8C
100
AcDbEntity
  8
SLD-0
  6
Continuous
 62
   250
420
  1644836
370
    15
100
AcDbLine
 10
69.2237693805
 20
24.0879937939
 30
0.0
 11
74.8451521037
 21
14.3514733084
 31
0.0
  0
LINE
  5
C8
330
8C
100
AcDbEntity
  8
SLD-0
  6
Continuous
 62
   250
420
  1644836
370
    15
100
AcDbLine
 10
56.5789820872
 20
92.8278146005
 30
0.0
 11
55.9491553771
 21
90.4772693184
 31
0.0
  0
LINE
  5
C9
330
8C
100
AcDbEntity
  8
SLD-0
  6
Continuous
 62
   250
420
  1644836
370
    15
100
AcDbLine
 10
55.9491553771
 20
90.4772693184
 30
0.0
 11
60.7787845085
 21
89.1831740929
 31
0.0
  0
LINE
  5
CA
330
8C
100
AcDbEntity
  8
SLD-0
  6
Continuous
 62
   250
420
  1644836
370
    15
100
AcDbLine
 10
60.7787845085
 20
89.1831740929
 30
0.0
 11
61.4086112186
 21
91.533719375
 31
0.0
  0
LINE
  5
CB
330
8C
100
AcDbEntity
  8
SLD-0
  6
Continuous
 62
   250
420
  1644836
370
    15
100
AcDbLine
 10
92.8278146004
 20
37.1140627844
 30
0.0
 11
90.4772693183
 21
37.7438894945
 31
0.0
  0
LINE
  5
CC
330
8C
100
AcDbEntity
  8
SLD-0
  6
Continuous
 62
   250
420
  1644836
370
    15
100
AcDbLine
 10
90.4772693183
 20
37.7438894945
 30
0.0
 11
89.1831740928
 21
32.914260363
 31
0.0
  0
LINE
  5
CD
330
8C
100
AcDbEntity
  8
SLD-0
  6
Continuous
 62
   250
420
  1644836
370
    15
100
AcDbLine
 10
89.1831740928
 20
32.914260363
 30
0.0
 11
91.5337193749
 21
32.2844336529
 31
0.0
  0
LINE
  5
CE
330
8C
100
AcDbEntity
  8
SLD-0
  6
Continuous
 62
   250
420
  1644836
370
    15
100
AcDbLine
 10
75.1815297071
 20
25.7688502089
 30
0.0
 11
81.0332895616
 21
15.6333048272
 31
0.0
  0
LINE
  5
CF
330
8C
100
AcDbEntity
  8
SLD-0
  6
Continuous
 62
   250
420
  1644836
370
    15
100
AcDbLine
 10
56.7845782557
 20
1.6333048273
 30
0.0
 11
50.9328184012
 21
11.768850209
 31
0.0
  0
LINE
  5
D0
330
8C
100
AcDbEntity
  8
SLD-0
  6
Continuous
 62
   250
420
  1644836
370
    15
100
AcDbLine
 10
37.1140627843
 20
0.8652302711
 30
0.0
 11
37.7438894944
 21
3.2157755532
 31
0.0
  0
LINE
  5
D1
330
8C
100
AcDbEntity
  8
SLD-0
  6
Continuous
 62
   250
420
  1644836
370
    15
100
AcDbLine
 10
37.7438894944
 20
3.2157755532
 30
0.0
 11
32.9142603629
 21
4.5098707787
 31
0.0
  0
LINE
  5
D2
330
8C
100
AcDbEntity
  8
SLD-0
  6
Continuous
 62
   250
420
  1644836
370
    15
100
AcDbLine
 10
32.9142603629
 20
4.5098707787
 30
0.0
 11
32.2844336528
 21
2.1593254966
 31
0.0
  0
LINE
  5
D3
330
8C
100
AcDbEntity
  8
SLD-0
  6
Continuous
 62
   250
420
  1644836
370
    15
100
AcDbLine
 10
0.865230271
 20
56.5789820872
 30
0.0
 11
3.2157755531
 21
55.9491553771
 31
0.0
  0
LINE
  5
D4
330
8C
100
AcDbEntity
  8
SLD-0
  6
Continuous
 62
   250
420
  1644836
370
    15
100
AcDbLine
 10
3.2157755531
 20
55.9491553771
 30
0.0
 11
4.5098707786
 21
60.7787845086
 31
0.0
  0
LINE
  5
D5
330
8C
100
AcDbEntity
  8
SLD-0
  6
Continuous
 62
   250
420
  1644836
370
    15
100
AcDbLine
 10
4.5098707786
 20
60.7787845086
 30
0.0
 11
2.1593254966
 21
61.4086112187
 31
0.0
  0
LINE
  5
D6
330
8C
100
AcDbEntity
  8
SLD-0
  6
Continuous
 62
   250
420
  1644836
370
    15
100
AcDbLine
 10
18.5115151643
 20
67.9241946627
 30
0.0
 11
12.6597553098
 21
78.0597400444
 31
0.0
  0
LINE
  5
D7
330
8C
100
AcDbEntity
  8
SLD-0
  6
Continuous
 62
   250
420
  1644836
370
    15
100
AcDbLine
 10
36.9084666158
 20
92.0597400444
 30
0.0
 11
42.7602264703
 21
81.9241946627
 31
0.0
  0
ENDBLK
  5
8E
330
8C
100
AcDbEntity
  8
0
100
AcDbBlockEnd
  0
BLOCK
  5
D9
330
D8
100
AcDbEntity
  8
0
100
AcDbBlockBegin
  2
Block3
 70
     0
 10
0.0
 20
0.0
 30
0.0
  3
Block3
  1

  0
CIRCLE
  5
DB
330
D8
100
AcDbEntity
  8
SLD-0
  6
Continuous
 62
   250
420
  1644836
370
    15
100
AcDbCircle
 10
15.0
 20
174.0
 30
0.0
 40
1.499999999999973
  0
CIRCLE
  5
DC
330
D8
100
AcDbEntity
  8
SLD-0
  6
Continuous
 62
   250
420
  1644836
370
    15
100
AcDbCircle
 10
26.0
 20
185.0
 30
0.0
 40
1.499999999999947
  0
CIRCLE
  5
DD
330
D8
100
AcDbEntity
  8
SLD-0
  6
Continuous
 62
   250
420
  1644836
370
    15
100
AcDbCircle
 10
4.0
 20
185.0
 30
0.0
 40
1.500000000000002
  0
CIRCLE
  5
DE
330
D8
100
AcDbEntity
  8
SLD-0
  6
Continuous
 62
   250
420
  1644836
370
    15
100
AcDbCircle
 10
15.0
 20
26.0
 30
0.0
 40
1.500000000000002
  0
CIRCLE
  5
DF
330
D8
100
AcDbEntity
  8
SLD-0
  6
Continuous
 62
   250
420
  1644836
370
    15
100
AcDbCircle
 10
26.0
 20
15.0
 30
0.0
 40
1.499999999999961
  0
CIRCLE
  5
E0
330
D8
100
AcDbEntity
  8
SLD-0
  6
Continuous
 62
   250
420
  1644836
370
    15
100
AcDbCircle
 10
15.0
 20
4.0
 30
0.0
 40
1.500000000000016
  0
CIRCLE
  5
E1
330
D8
100
AcDbEntity
  8
SLD-0
  6
Continuous
 62
   250
420
  1644836
370
    15
100
AcDbCircle
 10
4.0
 20
15.0
 30
0.0
 40
1.500000000000002
  0
CIRCLE
  5
E2
330
D8
100
AcDbEntity
  8
SLD-0
  6
Continuous
 62
   250
420
  1644836
370
    15
100
AcDbCircle
 10
174.0
 20
15.0
 30
0.0
 40
1.499999999999972
  0
CIRCLE
  5
E3
330
D8
100
AcDbEntity
  8
SLD-0
  6
Continuous
 62
   250
420
  1644836
370
    15
100
AcDbCircle
 10
185.0
 20
26.0
 30
0.0
 40
1.499999999999972
  0
CIRCLE
  5
E4
330
D8
100
AcDbEntity
  8
SLD-0
  6
Continuous
 62
   250
420
  1644836
370
    15
100
AcDbCircle
 10
196.0
 20
15.0
 30
0.0
 40
1.5
  0
CIRCLE
  5
E5
330
D8
100
AcDbEntity
  8
SLD-0
  6
Continuous
 62
   250
420
  1644836
370
    15
100
AcDbCircle
 10
185.0
 20
4.0
 30
0.0
 40
1.5
  0
CIRCLE
  5
E6
330
D8
100
AcDbEntity
  8
SLD-0
  6
Continuous
 62
   250
420
  1644836
370
    15
100
AcDbCircle
 10
196.0
 20
185.0
 30
0.0
 40
1.500000000000057
  0
CIRCLE
  5
E7
330
D8
100
AcDbEntity
  8
SLD-0
  6
Continuous
 62
   250
420
  1644836
370
    15
100
AcDbCircle
 10
185.0
 20
196.0
 30
0.0
 40
1.499999999999972
  0
CIRCLE
  5
E8
330
D8
100
AcDbEntity
  8
SLD-0
  6
Continuous
 62
   250
420
  1644836
370
    15
100
AcDbCircle
 10
174.0
 20
185.0
 30
0.0
 40
1.499999999999943
  0
CIRCLE
  5
E9
330
D8
100
AcDbEntity
  8
SLD-0
  6
Continuous
 62
   250
420
  1644836
370
    15
100
AcDbCircle
 10
185.0
 20
174.0
 30
0.0
 40
1.5
  0
CIRCLE
  5
EA
330
D8
100
AcDbEntity
  8
SLD-0
  6
Continuous
 62
   250
420
  1644836
370
    15
100
AcDbCircle
 10
15.0
 20
196.0
 30
0.0
 40
1.499999999999973
  0
CIRCLE
  5
EB
330
D8
100
AcDbEntity
  8
SLD-0
  6
Continuous
 62
   250
420
  1644836
370
    15
100
AcDbCircle
 10
100.0
 20
100.0
 30
0.0
 40
1.999999999991005
  0
ARC
  5
EC
330
D8
100
AcDbEntity
  8
SLD-0
  6
Continuous
 62
   250
420
  1644836
370
    15
100
AcDbCircle
 10
124.9310156128
 20
42.2759314443
 30
0.0
 40
0.5000000000000071
100
AcDbArc
 50
291.2247620698
 51
89.99999999
  0
ARC
  5
ED
330
D8
100
AcDbEntity
  8
SLD-0
  6
Continuous
 62
   250
420
  1644836
370
    15
100
AcDbCircle
 10
105.7650952345
 20
166.9669914111
 30
0.0
 40
35.0000000000276
100
AcDbArc
 50
270.0
 51
334.1946453337
  0
ARC
  5
EE
330
D8
100
AcDbEntity
  8
SLD-0
  6
Continuous
 62
   250
420
  1644836
370
    15
100
AcDbCircle
 10
142.6108258753
 20
132.8468630127
 30
0.0
 40
0.5000000000221356
100
AcDbArc
 50
332.5708402095
 51
133.5142661251
  0
ARC
  5
EF
330
D8
100
AcDbEntity
  8
SLD-0
  6
Continuous
 62
   250
420
  1644836
370
    15
100
AcDbCircle
 10
120.0268599272
 20
14.5513391217
 30
0.0
 40
39.8238584230354
100
AcDbArc
 50
40.4857810431
 51
58.0758209386
  0
ARC
  5
F0
330
D8
100
AcDbEntity
  8
SLD-0
  6
Continuous
 62
   250
420
  1644836
370
    15
100
AcDbCircle
 10
136.8754161574
 20
85.03300859
 30
0.0
 40
1.0
100
AcDbArc
 50
5.1465133986
 51
90.0
  0
ARC
  5
F1
330
D8
100
AcDbEntity
  8
SLD-0
  6
Continuous
 62
   250
420
  1644836
370
    15
100
AcDbCircle
 10
159.0209969733
 20
162.2465538973
 30
0.0
 40
15.00000000004449
100
AcDbArc
 50
148.7410409955
 51
154.1946453337
  0
ARC
  5
F2
330
D8
100
AcDbEntity
  8
SLD-0
  6
Continuous
 62
   250
420
  1644836
370
    15
100
AcDbCircle
 10
180.8541570368
 20
148.9931956814
 30
0.0
 40
40.54091584811528
100
AcDbArc
 50
109.7193093584
 51
148.7410409955
  0
ARC
  5
F3
330
D8
100
AcDbEntity
  8
SLD-0
  6
Continuous
 62
   250
420
  1644836
370
    15
100
AcDbCircle
 10
164.8132565306
 20
193.7461641933
 30
0.0
 40
6.999999999981767
100
AcDbArc
 50
289.7193093582
 51
336.5747115755
  0
ARC
  5
F4
330
D8
100
AcDbEntity
  8
SLD-0
  6
Continuous
 62
   250
420
  1644836
370
    15
100
AcDbCircle
 10
185.0000000001
 20
185.0000000001
 30
0.0
 40
15.00000000002192
100
AcDbArc
 50
269.4270040007
 51
156.5747115757
  0
ARC
  5
F5
330
D8
100
AcDbEntity
  8
SLD-0
  6
Continuous
 62
   250
420
  1644836
370
    15
100
AcDbCircle
 10
182.2496108349
 20
149.4750770464
 30
0.0
 40
20.68973752489818
100
AcDbArc
 50
82.7797069461
 51
144.4629886236
  0
ARC
  5
F6
330
D8
100
AcDbEntity
  8
SLD-0
  6
Continuous
 62
   250
420
  1644836
370
    15
100
AcDbCircle
 10
177.6196425036
 20
152.7821159565
 30
0.0
 40
14.99999999997815
100
AcDbArc
 50
144.4629886235
 51
154.1689272642
  0
ARC
  5
F7
330
D8
100
AcDbEntity
  8
SLD-0
  6
Continuous
 62
   250
420
  1644836
370
    15
100
AcDbCircle
 10
142.8567969978
 20
149.8227967206
 30
0.0
 40
15.00000000001078
100
AcDbArc
 50
328.3687420053
 51
334.1689272642
  0
ARC
  5
F8
330
D8
100
AcDbEntity
  8
SLD-0
  6
Continuous
 62
   250
420
  1644836
370
    15
100
AcDbCircle
 10
223.7436867077
 20
100.0
 30
0.0
 40
79.9999999999988
100
AcDbArc
 50
148.3687420052
 51
225.0
  0
ARC
  5
F9
330
D8
100
AcDbEntity
  8
SLD-0
  6
Continuous
 62
   250
420
  1644836
370
    15
100
AcDbCircle
 10
184.7499874978
 20
39.9987498437
 30
0.0
 40
9.999999999959876
100
AcDbArc
 50
225.0000000004
 51
270.5729959993
  0
ARC
  5
FA
330
D8
100
AcDbEntity
  8
SLD-0
  6
Continuous
 62
   250
420
  1644836
370
    15
100
AcDbCircle
 10
185.0000000001
 20
15.0
 30
0.0
 40
15.0000000000212
100
AcDbArc
 50
179.4270040008
 51
90.5729959996
  0
ARC
  5
FB
330
D8
100
AcDbEntity
  8
SLD-0
  6
Continuous
 62
   250
420
  1644836
370
    15
100
AcDbCircle
 10
160.0012501564
 20
15.2500125022
 30
0.0
 40
9.999999999945164
100
AcDbArc
 50
359.4270040007
 51
45.0
  0
ARC
  5
FC
330
D8
100
AcDbEntity
  8
SLD-0
  6
Continuous
 62
   250
420
  1644836
370
    15
100
AcDbCircle
 10
137.798153243
 20
-2.191557858
 30
0.0
 40
38.60709774407776
100
AcDbArc
 50
54.8930832578
 51
112.8444544207
  0
ARC
  5
FD
330
D8
100
AcDbEntity
  8
SLD-0
  6
Continuous
 62
   250
420
  1644836
370
    15
100
AcDbCircle
 10
100.0
 20
106.46962605
 30
0.0
 40
76.55919731476183
100
AcDbArc
 50
252.6663619548
 51
287.3336380452
  0
ARC
  5
FE
330
D8
100
AcDbEntity
  8
SLD-0
  6
Continuous
 62
   250
420
  1644836
370
    15
100
AcDbCircle
 10
62.201846757
 20
-2.191557858
 30
0.0
 40
38.60709774407984
100
AcDbArc
 50
67.1555455794
 51
125.1069167421
  0
ARC
  5
FF
330
D8
100
AcDbEntity
  8
SLD-0
  6
Continuous
 62
   250
420
  1644836
370
    15
100
AcDbCircle
 10
39.9987498436
 20
15.2500125023
 30
0.0
 40
9.99999999983122
100
AcDbArc
 50
135.0000000004
 51
180.5729959996
  0
ARC
  5
100
330
D8
100
AcDbEntity
  8
SLD-0
  6
Continuous
 62
   250
420
  1644836
370
    15
100
AcDbCircle
 10
15.0
 20
15.0
 30
0.0
 40
15.00000000002164
100
AcDbArc
 50
89.4270040009
 51
0.5729959994
  0
ARC
  5
101
330
D8
100
AcDbEntity
  8
SLD-0
  6
Continuous
 62
   250
420
  1644836
370
    15
100
AcDbCircle
 10
15.2500125022
 20
39.9987498438
 30
0.0
 40
10.00000000007334
100
AcDbArc
 50
269.4270040006
 51
314.9999999992
  0
ARC
  5
102
330
D8
100
AcDbEntity
  8
SLD-0
  6
Continuous
 62
   250
420
  1644836
370
    15
100
AcDbCircle
 10
-23.7436867076
 20
100.0
 30
0.0
 40
79.9999999999833
100
AcDbArc
 50
315.0
 51
31.6312579947
  0
ARC
  5
103
330
D8
100
AcDbEntity
  8
SLD-0
  6
Continuous
 62
   250
420
  1644836
370
    15
100
AcDbCircle
 10
57.1432030024
 20
149.8227967205
 30
0.0
 40
15.00000000007126
100
AcDbArc
 50
205.8310727356
 51
211.631257995
  0
ARC
  5
104
330
D8
100
AcDbEntity
  8
SLD-0
  6
Continuous
 62
   250
420
  1644836
370
    15
100
AcDbCircle
 10
22.3803574965
 20
152.7821159565
 30
0.0
 40
14.99999999999486
100
AcDbArc
 50
25.8310727358
 51
35.5370113764
  0
ARC
  5
105
330
D8
100
AcDbEntity
  8
SLD-0
  6
Continuous
 62
   250
420
  1644836
370
    15
100
AcDbCircle
 10
17.7503891652
 20
149.4750770463
 30
0.0
 40
20.68973752486943
100
AcDbArc
 50
35.5370113765
 51
97.2202930538
  0
ARC
  5
106
330
D8
100
AcDbEntity
  8
SLD-0
  6
Continuous
 62
   250
420
  1644836
370
    15
100
AcDbCircle
 10
15.0
 20
185.0
 30
0.0
 40
15.00000000000253
100
AcDbArc
 50
23.4252884245
 51
270.5729959995
  0
ARC
  5
107
330
D8
100
AcDbEntity
  8
SLD-0
  6
Continuous
 62
   250
420
  1644836
370
    15
100
AcDbCircle
 10
35.1867434696
 20
193.7461641932
 30
0.0
 40
6.999999999975131
100
AcDbArc
 50
203.4252884243
 51
250.2806906416
  0
ARC
  5
108
330
D8
100
AcDbEntity
  8
SLD-0
  6
Continuous
 62
   250
420
  1644836
370
    15
100
AcDbCircle
 10
19.1458429634
 20
148.9931956813
 30
0.0
 40
40.54091584812732
100
AcDbArc
 50
31.2589590045
 51
70.2806906416
  0
ARC
  5
109
330
D8
100
AcDbEntity
  8
SLD-0
  6
Continuous
 62
   250
420
  1644836
370
    15
100
AcDbCircle
 10
40.979003027
 20
162.2465538973
 30
0.0
 40
14.99999999993849
100
AcDbArc
 50
25.8053546662
 51
31.2589590044
  0
ARC
  5
10A
330
D8
100
AcDbEntity
  8
SLD-0
  6
Continuous
 62
   250
420
  1644836
370
    15
100
AcDbCircle
 10
94.2349047657
 20
166.966991411
 30
0.0
 40
34.99999999998261
100
AcDbArc
 50
205.8053546664
 51
270.0
  0
ARC
  5
10B
330
D8
100
AcDbEntity
  8
SLD-0
  6
Continuous
 62
   250
420
  1644836
370
    15
100
AcDbCircle
 10
135.0044261931
 20
135.966991411
 30
0.0
 40
6.999999999969368
100
AcDbArc
 50
270.0
 51
313.5142661191
  0
ARC
  5
10C
330
D8
100
AcDbEntity
  8
SLD-0
  6
Continuous
 62
   250
420
  1644836
370
    15
100
AcDbCircle
 10
135.798153243
 20
114.96699141
 30
0.0
 40
1.0
100
AcDbArc
 50
180.0
 51
270.0
  0
ARC
  5
10D
330
D8
100
AcDbEntity
  8
SLD-0
  6
Continuous
 62
   250
420
  1644836
370
    15
100
AcDbCircle
 10
136.8754161574
 20
114.96699141
 30
0.0
 40
1.000000000000117
100
AcDbArc
 50
270.0
 51
354.8534866014
  0
ARC
  5
10E
330
D8
100
AcDbEntity
  8
SLD-0
  6
Continuous
 62
   250
420
  1644836
370
    15
100
AcDbCircle
 10
185.4998956434
 20
110.5875809865
 30
0.0
 40
47.82129905009842
100
AcDbArc
 50
152.5708402094
 51
174.8534866014
  0
ARC
  5
10F
330
D8
100
AcDbEntity
  8
SLD-0
  6
Continuous
 62
   250
420
  1644836
370
    15
100
AcDbCircle
 10
153.2594532344
 20
63.5020088685
 30
0.0
 40
19.43534247173549
100
AcDbArc
 50
210.9037691374
 51
231.2165875569
  0
ARC
  5
110
330
D8
100
AcDbEntity
  8
SLD-0
  6
Continuous
 62
   250
420
  1644836
370
    15
100
AcDbCircle
 10
135.7252934224
 20
53.006464022
 30
0.0
 40
0.999999999987466
100
AcDbArc
 50
30.9037691335
 51
180.0
  0
ARC
  5
111
330
D8
100
AcDbEntity
  8
SLD-0
  6
Continuous
 62
   250
420
  1644836
370
    15
100
AcDbCircle
 10
135.7252934224
 20
42.7759314443
 30
0.0
 40
1.000000000000009
100
AcDbArc
 50
180.0
 51
273.5622870159
  0
ARC
  5
112
330
D8
100
AcDbEntity
  8
SLD-0
  6
Continuous
 62
   250
420
  1644836
370
    15
100
AcDbCircle
 10
137.8388932486
 20
8.8246331405
 30
0.0
 40
33.01702457212735
100
AcDbArc
 50
68.8443272601
 51
93.562287016
  0
ARC
  5
113
330
D8
100
AcDbEntity
  8
SLD-0
  6
Continuous
 62
   250
420
  1644836
370
    15
100
AcDbCircle
 10
149.9352934455
 20
40.082720709
 30
0.0
 40
0.4999999999497243
100
AcDbArc
 50
248.8443272623
 51
40.4857810497
  0
ARC
  5
114
330
D8
100
AcDbEntity
  8
SLD-0
  6
Continuous
 62
   250
420
  1644836
370
    15
100
AcDbCircle
 10
64.2747065776
 20
53.006464022
 30
0.0
 40
1.0
100
AcDbArc
 50
0.0
 51
149.0962308622
  0
ARC
  5
115
330
D8
100
AcDbEntity
  8
SLD-0
  6
Continuous
 62
   250
420
  1644836
370
    15
100
AcDbCircle
 10
46.7405467657
 20
63.5020088686
 30
0.0
 40
19.43534247172316
100
AcDbArc
 50
308.7834124426
 51
329.0962308624
  0
ARC
  5
116
330
D8
100
AcDbEntity
  8
SLD-0
  6
Continuous
 62
   250
420
  1644836
370
    15
100
AcDbCircle
 10
79.9731400727
 20
14.5513391217
 30
0.0
 40
39.82385842303188
100
AcDbArc
 50
121.9241790614
 51
139.5142189568
  0
ARC
  5
117
330
D8
100
AcDbEntity
  8
SLD-0
  6
Continuous
 62
   250
420
  1644836
370
    15
100
AcDbCircle
 10
50.0647065546
 20
40.0827207091
 30
0.0
 40
0.5000000000382044
100
AcDbArc
 50
139.5142189578
 51
291.1556727399
  0
ARC
  5
118
330
D8
100
AcDbEntity
  8
SLD-0
  6
Continuous
 62
   250
420
  1644836
370
    15
100
AcDbCircle
 10
62.1611067515
 20
8.8246331404
 30
0.0
 40
33.01702457215217
100
AcDbArc
 50
86.4377129841
 51
111.1556727398
  0
ARC
  5
119
330
D8
100
AcDbEntity
  8
SLD-0
  6
Continuous
 62
   250
420
  1644836
370
    15
100
AcDbCircle
 10
64.2747065776
 20
42.7759314443
 30
0.0
 40
1.000000000017948
100
AcDbArc
 50
266.437712987
 51
0.0
  0
ARC
  5
11A
330
D8
100
AcDbEntity
  8
SLD-0
  6
Continuous
 62
   250
420
  1644836
370
    15
100
AcDbCircle
 10
64.9955738069
 20
135.966991411
 30
0.0
 40
7.000000000003785
100
AcDbArc
 50
226.4857338803
 51
270.0
  0
ARC
  5
11B
330
D8
100
AcDbEntity
  8
SLD-0
  6
Continuous
 62
   250
420
  1644836
370
    15
100
AcDbCircle
 10
57.3891741247
 20
132.8468630127
 30
0.0
 40
0.4999999999877882
100
AcDbArc
 50
46.4857338832
 51
207.4291597905
  0
ARC
  5
11C
330
D8
100
AcDbEntity
  8
SLD-0
  6
Continuous
 62
   250
420
  1644836
370
    15
100
AcDbCircle
 10
14.5001043567
 20
110.5875809865
 30
0.0
 40
47.8212990500972
100
AcDbArc
 50
5.1465133986
 51
27.4291597906
  0
ARC
  5
11D
330
D8
100
AcDbEntity
  8
SLD-0
  6
Continuous
 62
   250
420
  1644836
370
    15
100
AcDbCircle
 10
63.1245838427
 20
114.96699141
 30
0.0
 40
1.000000000001241
100
AcDbArc
 50
185.1465133968
 51
270.0
  0
ARC
  5
11E
330
D8
100
AcDbEntity
  8
SLD-0
  6
Continuous
 62
   250
420
  1644836
370
    15
100
AcDbCircle
 10
64.201846757
 20
114.96699141
 30
0.0
 40
1.0
100
AcDbArc
 50
270.0
 51
0.0
  0
ARC
  5
11F
330
D8
100
AcDbEntity
  8
SLD-0
  6
Continuous
 62
   250
420
  1644836
370
    15
100
AcDbCircle
 10
135.798153243
 20
85.03300859
 30
0.0
 40
1.0
100
AcDbArc
 50
90.0
 51
180.0
  0
ARC
  5
120
330
D8
100
AcDbEntity
  8
SLD-0
  6
Continuous
 62
   250
420
  1644836
370
    15
100
AcDbCircle
 10
135.0044261932
 20
64.033008589
 30
0.0
 40
7.000000000005642
100
AcDbArc
 50
46.4857338814
 51
90.0
  0
ARC
  5
121
330
D8
100
AcDbEntity
  8
SLD-0
  6
Continuous
 62
   250
420
  1644836
370
    15
100
AcDbCircle
 10
142.6108258754
 20
67.1531369873
 30
0.0
 40
0.5000000000221176
100
AcDbArc
 50
226.4857338749
 51
27.4291597907
  0
ARC
  5
122
330
D8
100
AcDbEntity
  8
SLD-0
  6
Continuous
 62
   250
420
  1644836
370
    15
100
AcDbCircle
 10
185.4998956434
 20
89.4124190136
 30
0.0
 40
47.82129905012619
100
AcDbArc
 50
185.1465133987
 51
207.4291597907
  0
ARC
  5
123
330
D8
100
AcDbEntity
  8
SLD-0
  6
Continuous
 62
   250
420
  1644836
370
    15
100
AcDbCircle
 10
64.9955738069
 20
64.033008589
 30
0.0
 40
7.00000000004006
100
AcDbArc
 50
90.0
 51
133.5142661192
  0
ARC
  5
124
330
D8
100
AcDbEntity
  8
SLD-0
  6
Continuous
 62
   250
420
  1644836
370
    15
100
AcDbCircle
 10
64.201846757
 20
85.03300859
 30
0.0
 40
1.0
100
AcDbArc
 50
0.0
 51
90.0
  0
ARC
  5
125
330
D8
100
AcDbEntity
  8
SLD-0
  6
Continuous
 62
   250
420
  1644836
370
    15
100
AcDbCircle
 10
63.1245838427
 20
85.03300859
 30
0.0
 40
1.000000000000004
100
AcDbArc
 50
90.0
 51
174.8534866014
  0
ARC
  5
126
330
D8
100
AcDbEntity
  8
SLD-0
  6
Continuous
 62
   250
420
  1644836
370
    15
100
AcDbCircle
 10
14.5001043567
 20
89.4124190136
 30
0.0
 40
47.82129905012759
100
AcDbArc
 50
332.5708402093
 51
354.8534866013
  0
ARC
  5
127
330
D8
100
AcDbEntity
  8
SLD-0
  6
Continuous
 62
   250
420
  1644836
370
    15
100
AcDbCircle
 10
57.3891741247
 20
67.1531369873
 30
0.0
 40
0.499999999986155
100
AcDbArc
 50
152.5708402058
 51
313.5142661168
  0
ARC
  5
128
330
D8
100
AcDbEntity
  8
SLD-0
  6
Continuous
 62
   250
420
  1644836
370
    15
100
AcDbCircle
 10
75.0689843872
 20
42.2759314443
 30
0.0
 40
0.5
100
AcDbArc
 50
90.0
 51
248.7752379409
  0
ARC
  5
129
330
D8
100
AcDbEntity
  8
SLD-0
  6
Continuous
 62
   250
420
  1644836
370
    15
100
AcDbCircle
 10
100.0
 20
106.46962605
 30
0.0
 40
69.36498360283001
100
AcDbArc
 50
248.7752379409
 51
291.2247620591
  0
LINE
  5
12A
330
D8
100
AcDbEntity
  8
SLD-0
  6
Continuous
 62
   250
420
  1644836
370
    15
100
AcDbLine
 10
181.4644660942
 20
7.9289321882
 30
0.0
 11
177.9289321882
 21
11.4644660941
 31
0.0
  0
LINE
  5
12B
330
D8
100
AcDbEntity
  8
SLD-0
  6
Continuous
 62
   250
420
  1644836
370
    15
100
AcDbLine
 10
107.2182540695
 20
96.3172798365
 30
0.0
 11
114.2893218814
 21
89.2462120246
 31
0.0
  0
LINE
  5
12C
330
D8
100
AcDbEntity
  8
SLD-0
  6
Continuous
 62
   250
420
  1644836
370
    15
100
AcDbLine
 10
103.6827201636
 20
107.2182540695
 30
0.0
 11
110.7537879755
 21
114.2893218814
 31
0.0
  0
LINE
  5
12D
330
D8
100
AcDbEntity
  8
SLD-0
  6
Continuous
 62
   250
420
  1644836
370
    15
100
AcDbLine
 10
96.3172798365
 20
92.7817459306
 30
0.0
 11
89.2462120246
 21
85.7106781187
 31
0.0
  0
LINE
  5
12E
330
D8
100
AcDbEntity
  8
SLD-0
  6
Continuous
 62
   250
420
  1644836
370
    15
100
AcDbLine
 10
92.7817459305
 20
103.6827201636
 30
0.0
 11
85.7106781187
 21
110.7537879755
 31
0.0
  0
LINE
  5
12F
330
D8
100
AcDbEntity
  8
SLD-0
  6
Continuous
 62
   250
420
  1644836
370
    15
100
AcDbLine
 10
131.966991411
 20
64.4974746831
 30
0.0
 11
135.502525317
 21
68.0330085891
 31
0.0
  0
LINE
  5
130
330
D8
100
AcDbEntity
  8
SLD-0
  6
Continuous
 62
   250
420
  1644836
370
    15
100
AcDbLine
 10
135.502525317
 20
131.966991411
 30
0.0
 11
131.966991411
 21
135.502525317
 31
0.0
  0
LINE
  5
131
330
D8
100
AcDbEntity
  8
SLD-0
  6
Continuous
 62
   250
420
  1644836
370
    15
100
AcDbLine
 10
68.0330085891
 20
135.502525317
 30
0.0
 11
64.4974746831
 21
131.966991411
 31
0.0
  0
LINE
  5
132
330
D8
100
AcDbEntity
  8
SLD-0
  6
Continuous
 62
   250
420
  1644836
370
    15
100
AcDbLine
 10
64.4974746831
 20
68.033008589
 30
0.0
 11
68.033008589
 21
64.4974746831
 31
0.0
  0
LINE
  5
133
330
D8
100
AcDbEntity
  8
SLD-0
  6
Continuous
 62
   250
420
  1644836
370
    15
100
AcDbLine
 10
22.0710678121
 20
11.4644660941
 30
0.0
 11
18.5355339061
 21
7.9289321881
 31
0.0
  0
LINE
  5
134
330
D8
100
AcDbEntity
  8
SLD-0
  6
Continuous
 62
   250
420
  1644836
370
    15
100
AcDbLine
 10
7.9289321882
 20
181.4644660941
 30
0.0
 11
11.4644660941
 21
185.0
 31
0.0
  0
LINE
  5
135
330
D8
100
AcDbEntity
  8
SLD-0
  6
Continuous
 62
   250
420
  1644836
370
    15
100
AcDbLine
 10
181.4982970108
 20
177.9627631049
 30
0.0
 11
177.9627631049
 21
181.4982970108
 31
0.0
  0
LINE
  5
136
330
D8
100
AcDbEntity
  8
SLD-0
  6
Continuous
 62
   250
420
  1644836
370
    15
100
AcDbLine
 10
65.2747065776
 20
53.006464022
 30
0.0
 11
65.2747065776
 21
42.7759314443
 31
0.0
  0
LINE
  5
137
330
D8
100
AcDbEntity
  8
SLD-0
  6
Continuous
 62
   250
420
  1644836
370
    15
100
AcDbLine
 10
64.9955738069
 20
128.966991411
 30
0.0
 11
65.201846757
 21
128.966991411
 31
0.0
  0
LINE
  5
138
330
D8
100
AcDbEntity
  8
SLD-0
  6
Continuous
 62
   250
420
  1644836
370
    15
100
AcDbLine
 10
60.1758276458
 20
69.1094292713
 30
0.0
 11
57.7334417076
 21
66.79053551
 31
0.0
  0
LINE
  5
139
330
D8
100
AcDbEntity
  8
SLD-0
  6
Continuous
 62
   250
420
  1644836
370
    15
100
AcDbLine
 10
137.274828464
 20
151.7309580753
 30
0.0
 11
145.5168255892
 21
168.7762824698
 31
0.0
  0
LINE
  5
13A
330
D8
100
AcDbEntity
  8
SLD-0
  6
Continuous
 62
   250
420
  1644836
370
    15
100
AcDbLine
 10
156.358036055
 20
143.2870072564
 30
0.0
 11
164.1184034464
 21
159.3179054207
 31
0.0
  0
LINE
  5
13B
330
D8
100
AcDbEntity
  8
SLD-0
  6
Continuous
 62
   250
420
  1644836
370
    15
100
AcDbLine
 10
167.1751442128
 20
43.4314575051
 30
0.0
 11
177.678919686
 21
32.9276820318
 31
0.0
  0
LINE
  5
13C
330
D8
100
AcDbEntity
  8
SLD-0
  6
Continuous
 62
   250
420
  1644836
370
    15
100
AcDbLine
 10
160.0012501564
 20
29.3921481259
 30
0.0
 11
167.0723179682
 21
22.321080314
 31
0.0
  0
LINE
  5
13D
330
D8
100
AcDbEntity
  8
SLD-0
  6
Continuous
 62
   250
420
  1644836
370
    15
100
AcDbLine
 10
39.9987498437
 20
29.3921481259
 30
0.0
 11
32.9276820318
 21
22.321080314
 31
0.0
  0
LINE
  5
13E
330
D8
100
AcDbEntity
  8
SLD-0
  6
Continuous
 62
   250
420
  1644836
370
    15
100
AcDbLine
 10
32.8248557873
 20
43.4314575051
 30
0.0
 11
22.321080314
 21
32.9276820318
 31
0.0
  0
LINE
  5
13F
330
D8
100
AcDbEntity
  8
SLD-0
  6
Continuous
 62
   250
420
  1644836
370
    15
100
AcDbLine
 10
43.6419639451
 20
143.2870072564
 30
0.0
 11
35.8815965537
 21
159.3179054207
 31
0.0
  0
LINE
  5
140
330
D8
100
AcDbEntity
  8
SLD-0
  6
Continuous
 62
   250
420
  1644836
370
    15
100
AcDbLine
 10
62.7251715363
 20
151.7309580752
 30
0.0
 11
54.483174411
 21
168.7762824697
 31
0.0
  0
LINE
  5
141
330
D8
100
AcDbEntity
  8
SLD-0
  6
Continuous
 62
   250
420
  1644836
370
    15
100
AcDbLine
 10
105.7650952345
 20
131.9669914111
 30
0.0
 11
94.2349047657
 21
131.9669914111
 31
0.0
  0
LINE
  5
142
330
D8
100
AcDbEntity
  8
SLD-0
  6
Continuous
 62
   250
420
  1644836
370
    15
100
AcDbLine
 10
139.8241723541
 20
130.8905707288
 30
0.0
 11
142.2665582923
 21
133.20946449
 31
0.0
  0
LINE
  5
143
330
D8
100
AcDbEntity
  8
SLD-0
  6
Continuous
 62
   250
420
  1644836
370
    15
100
AcDbLine
 10
135.0044261931
 20
128.9669914111
 30
0.0
 11
134.798153243
 21
128.9669914111
 31
0.0
  0
LINE
  5
144
330
D8
100
AcDbEntity
  8
SLD-0
  6
Continuous
 62
   250
420
  1644836
370
    15
100
AcDbLine
 10
134.798153243
 20
128.9669914111
 30
0.0
 11
134.798153243
 21
114.96699141
 31
0.0
  0
LINE
  5
145
330
D8
100
AcDbEntity
  8
SLD-0
  6
Continuous
 62
   250
420
  1644836
370
    15
100
AcDbLine
 10
136.8754161574
 20
113.96699141
 30
0.0
 11
135.798153243
 21
113.96699141
 31
0.0
  0
LINE
  5
146
330
D8
100
AcDbEntity
  8
SLD-0
  6
Continuous
 62
   250
420
  1644836
370
    15
100
AcDbLine
 10
181.4644660942
 20
7.9289321882
 30
0.0
 11
185.0169154585
 21
11.4813815525
 31
0.0
  0
LINE
  5
147
330
D8
100
AcDbEntity
  8
SLD-0
  6
Continuous
 62
   250
420
  1644836
370
    15
100
AcDbLine
 10
188.5693648228
 20
7.9289321882
 30
0.0
 11
185.0169154585
 21
11.4813815525
 31
0.0
  0
LINE
  5
148
330
D8
100
AcDbEntity
  8
SLD-0
  6
Continuous
 62
   250
420
  1644836
370
    15
100
AcDbLine
 10
188.5693648228
 20
7.9289321882
 30
0.0
 11
192.1048987287
 21
11.4644660941
 31
0.0
  0
LINE
  5
149
330
D8
100
AcDbEntity
  8
SLD-0
  6
Continuous
 62
   250
420
  1644836
370
    15
100
AcDbLine
 10
192.1048987287
 20
11.4644660941
 30
0.0
 11
188.5524493645
 21
15.0169154584
 31
0.0
  0
LINE
  5
14A
330
D8
100
AcDbEntity
  8
SLD-0
  6
Continuous
 62
   250
420
  1644836
370
    15
100
AcDbLine
 10
188.5524493645
 20
15.0169154584
 30
0.0
 11
192.071067812
 21
18.535533906
 31
0.0
  0
LINE
  5
14B
330
D8
100
AcDbEntity
  8
SLD-0
  6
Continuous
 62
   250
420
  1644836
370
    15
100
AcDbLine
 10
188.5355339061
 20
22.0710678119
 30
0.0
 11
192.071067812
 21
18.535533906
 31
0.0
  0
LINE
  5
14C
330
D8
100
AcDbEntity
  8
SLD-0
  6
Continuous
 62
   250
420
  1644836
370
    15
100
AcDbLine
 10
185.0169154585
 20
18.5524493643
 30
0.0
 11
188.5355339061
 21
22.0710678119
 31
0.0
  0
LINE
  5
14D
330
D8
100
AcDbEntity
  8
SLD-0
  6
Continuous
 62
   250
420
  1644836
370
    15
100
AcDbLine
 10
185.0169154585
 20
18.5524493643
 30
0.0
 11
181.4982970109
 21
22.0710678119
 31
0.0
  0
LINE
  5
14E
330
D8
100
AcDbEntity
  8
SLD-0
  6
Continuous
 62
   250
420
  1644836
370
    15
100
AcDbLine
 10
177.962763105
 20
18.535533906
 30
0.0
 11
181.4982970109
 21
22.0710678119
 31
0.0
  0
LINE
  5
14F
330
D8
100
AcDbEntity
  8
SLD-0
  6
Continuous
 62
   250
420
  1644836
370
    15
100
AcDbLine
 10
181.4813815525
 20
15.0169154584
 30
0.0
 11
177.962763105
 21
18.535533906
 31
0.0
  0
LINE
  5
150
330
D8
100
AcDbEntity
  8
SLD-0
  6
Continuous
 62
   250
420
  1644836
370
    15
100
AcDbLine
 10
177.9289321882
 20
11.4644660941
 30
0.0
 11
181.4813815525
 21
15.0169154584
 31
0.0
  0
LINE
  5
151
330
D8
100
AcDbEntity
  8
SLD-0
  6
Continuous
 62
   250
420
  1644836
370
    15
100
AcDbLine
 10
103.6827201635
 20
92.7817459305
 30
0.0
 11
107.2182540695
 21
96.3172798365
 31
0.0
  0
LINE
  5
152
330
D8
100
AcDbEntity
  8
SLD-0
  6
Continuous
 62
   250
420
  1644836
370
    15
100
AcDbLine
 10
103.6827201635
 20
92.7817459305
 30
0.0
 11
110.7537879754
 21
85.7106781186
 31
0.0
  0
LINE
  5
153
330
D8
100
AcDbEntity
  8
SLD-0
  6
Continuous
 62
   250
420
  1644836
370
    15
100
AcDbLine
 10
110.7537879754
 20
85.7106781186
 30
0.0
 11
114.2893218814
 21
89.2462120246
 31
0.0
  0
LINE
  5
154
330
D8
100
AcDbEntity
  8
SLD-0
  6
Continuous
 62
   250
420
  1644836
370
    15
100
AcDbLine
 10
107.2182540696
 20
103.6827201636
 30
0.0
 11
103.6827201636
 21
107.2182540695
 31
0.0
  0
LINE
  5
155
330
D8
100
AcDbEntity
  8
SLD-0
  6
Continuous
 62
   250
420
  1644836
370
    15
100
AcDbLine
 10
107.2182540696
 20
103.6827201636
 30
0.0
 11
114.2893218814
 21
110.7537879754
 31
0.0
  0
LINE
  5
156
330
D8
100
AcDbEntity
  8
SLD-0
  6
Continuous
 62
   250
420
  1644836
370
    15
100
AcDbLine
 10
114.2893218814
 20
110.7537879754
 30
0.0
 11
110.7537879755
 21
114.2893218814
 31
0.0
  0
LINE
  5
157
330
D8
100
AcDbEntity
  8
SLD-0
  6
Continuous
 62
   250
420
  1644836
370
    15
100
AcDbLine
 10
92.7817459306
 20
96.3172798365
 30
0.0
 11
96.3172798365
 21
92.7817459306
 31
0.0
  0
LINE
  5
158
330
D8
100
AcDbEntity
  8
SLD-0
  6
Continuous
 62
   250
420
  1644836
370
    15
100
AcDbLine
 10
92.7817459306
 20
96.3172798365
 30
0.0
 11
85.7106781187
 21
89.2462120246
 31
0.0
  0
LINE
  5
159
330
D8
100
AcDbEntity
  8
SLD-0
  6
Continuous
 62
   250
420
  1644836
370
    15
100
AcDbLine
 10
85.7106781187
 20
89.2462120246
 30
0.0
 11
89.2462120246
 21
85.7106781187
 31
0.0
  0
LINE
  5
15A
330
D8
100
AcDbEntity
  8
SLD-0
  6
Continuous
 62
   250
420
  1644836
370
    15
100
AcDbLine
 10
96.3172798365
 20
107.2182540696
 30
0.0
 11
92.7817459305
 21
103.6827201636
 31
0.0
  0
LINE
  5
15B
330
D8
100
AcDbEntity
  8
SLD-0
  6
Continuous
 62
   250
420
  1644836
370
    15
100
AcDbLine
 10
96.3172798365
 20
107.2182540696
 30
0.0
 11
89.2462120246
 21
114.2893218814
 31
0.0
  0
LINE
  5
15C
330
D8
100
AcDbEntity
  8
SLD-0
  6
Continuous
 62
   250
420
  1644836
370
    15
100
AcDbLine
 10
89.2462120246
 20
114.2893218814
 30
0.0
 11
85.7106781187
 21
110.7537879755
 31
0.0
  0
LINE
  5
15D
330
D8
100
AcDbEntity
  8
SLD-0
  6
Continuous
 62
   250
420
  1644836
370
    15
100
AcDbLine
 10
142.5735931288
 20
53.8908729653
 30
0.0
 11
131.966991411
 21
64.4974746831
 31
0.0
  0
LINE
  5
15E
330
D8
100
AcDbEntity
  8
SLD-0
  6
Continuous
 62
   250
420
  1644836
370
    15
100
AcDbLine
 10
142.5735931288
 20
53.8908729653
 30
0.0
 11
146.1091270348
 21
57.4264068713
 31
0.0
  0
LINE
  5
15F
330
D8
100
AcDbEntity
  8
SLD-0
  6
Continuous
 62
   250
420
  1644836
370
    15
100
AcDbLine
 10
146.1091270348
 20
57.4264068713
 30
0.0
 11
135.502525317
 21
68.0330085891
 31
0.0
  0
LINE
  5
160
330
D8
100
AcDbEntity
  8
SLD-0
  6
Continuous
 62
   250
420
  1644836
370
    15
100
AcDbLine
 10
146.1091270348
 20
142.5735931288
 30
0.0
 11
135.502525317
 21
131.966991411
 31
0.0
  0
LINE
  5
161
330
D8
100
AcDbEntity
  8
SLD-0
  6
Continuous
 62
   250
420
  1644836
370
    15
100
AcDbLine
 10
146.1091270348
 20
142.5735931288
 30
0.0
 11
142.5735931288
 21
146.1091270348
 31
0.0
  0
LINE
  5
162
330
D8
100
AcDbEntity
  8
SLD-0
  6
Continuous
 62
   250
420
  1644836
370
    15
100
AcDbLine
 10
142.5735931288
 20
146.1091270348
 30
0.0
 11
131.966991411
 21
135.502525317
 31
0.0
  0
LINE
  5
163
330
D8
100
AcDbEntity
  8
SLD-0
  6
Continuous
 62
   250
420
  1644836
370
    15
100
AcDbLine
 10
57.4264068713
 20
146.1091270348
 30
0.0
 11
68.0330085891
 21
135.502525317
 31
0.0
  0
LINE
  5
164
330
D8
100
AcDbEntity
  8
SLD-0
  6
Continuous
 62
   250
420
  1644836
370
    15
100
AcDbLine
 10
57.4264068713
 20
146.1091270348
 30
0.0
 11
53.8908729653
 21
142.5735931288
 31
0.0
  0
LINE
  5
165
330
D8
100
AcDbEntity
  8
SLD-0
  6
Continuous
 62
   250
420
  1644836
370
    15
100
AcDbLine
 10
53.8908729653
 20
142.5735931288
 30
0.0
 11
64.4974746831
 21
131.966991411
 31
0.0
  0
LINE
  5
166
330
D8
100
AcDbEntity
  8
SLD-0
  6
Continuous
 62
   250
420
  1644836
370
    15
100
AcDbLine
 10
53.8908729653
 20
57.4264068712
 30
0.0
 11
64.4974746831
 21
68.033008589
 31
0.0
  0
LINE
  5
167
330
D8
100
AcDbEntity
  8
SLD-0
  6
Continuous
 62
   250
420
  1644836
370
    15
100
AcDbLine
 10
53.8908729653
 20
57.4264068712
 30
0.0
 11
57.4264068712
 21
53.8908729653
 31
0.0
  0
LINE
  5
168
330
D8
100
AcDbEntity
  8
SLD-0
  6
Continuous
 62
   250
420
  1644836
370
    15
100
AcDbLine
 10
57.4264068712
 20
53.8908729653
 30
0.0
 11
68.033008589
 21
64.4974746831
 31
0.0
  0
LINE
  5
169
330
D8
100
AcDbEntity
  8
SLD-0
  6
Continuous
 62
   250
420
  1644836
370
    15
100
AcDbLine
 10
18.5355339062
 20
15.0
 30
0.0
 11
22.0710678121
 21
11.4644660941
 31
0.0
  0
LINE
  5
16A
330
D8
100
AcDbEntity
  8
SLD-0
  6
Continuous
 62
   250
420
  1644836
370
    15
100
AcDbLine
 10
18.5355339062
 20
15.0
 30
0.0
 11
22.0710678121
 21
18.5355339059
 31
0.0
  0
LINE
  5
16B
330
D8
100
AcDbEntity
  8
SLD-0
  6
Continuous
 62
   250
420
  1644836
370
    15
100
AcDbLine
 10
18.5355339061
 20
22.0710678119
 30
0.0
 11
22.0710678121
 21
18.5355339059
 31
0.0
  0
LINE
  5
16C
330
D8
100
AcDbEntity
  8
SLD-0
  6
Continuous
 62
   250
420
  1644836
370
    15
100
AcDbLine
 10
15.0000000001
 20
18.5355339059
 30
0.0
 11
18.5355339061
 21
22.0710678119
 31
0.0
  0
LINE
  5
16D
330
D8
100
AcDbEntity
  8
SLD-0
  6
Continuous
 62
   250
420
  1644836
370
    15
100
AcDbLine
 10
11.4644660942
 20
22.0710678119
 30
0.0
 11
15.0000000001
 21
18.5355339059
 31
0.0
  0
LINE
  5
16E
330
D8
100
AcDbEntity
  8
SLD-0
  6
Continuous
 62
   250
420
  1644836
370
    15
100
AcDbLine
 10
7.9289321882
 20
18.5355339059
 30
0.0
 11
11.4644660942
 21
22.0710678119
 31
0.0
  0
LINE
  5
16F
330
D8
100
AcDbEntity
  8
SLD-0
  6
Continuous
 62
   250
420
  1644836
370
    15
100
AcDbLine
 10
7.9289321882
 20
18.5355339059
 30
0.0
 11
11.4644660941
 21
15.0
 31
0.0
  0
LINE
  5
170
330
D8
100
AcDbEntity
  8
SLD-0
  6
Continuous
 62
   250
420
  1644836
370
    15
100
AcDbLine
 10
7.9289321882
 20
11.4644660941
 30
0.0
 11
11.4644660941
 21
15.0
 31
0.0
  0
LINE
  5
171
330
D8
100
AcDbEntity
  8
SLD-0
  6
Continuous
 62
   250
420
  1644836
370
    15
100
AcDbLine
 10
7.9289321882
 20
11.4644660941
 30
0.0
 11
11.4644660942
 21
7.9289321882
 31
0.0
  0
LINE
  5
172
330
D8
100
AcDbEntity
  8
SLD-0
  6
Continuous
 62
   250
420
  1644836
370
    15
100
AcDbLine
 10
11.4644660942
 20
7.9289321882
 30
0.0
 11
15.0000000001
 21
11.4644660941
 31
0.0
  0
LINE
  5
173
330
D8
100
AcDbEntity
  8
SLD-0
  6
Continuous
 62
   250
420
  1644836
370
    15
100
AcDbLine
 10
15.0000000001
 20
11.4644660941
 30
0.0
 11
18.5355339061
 21
7.9289321881
 31
0.0
  0
LINE
  5
174
330
D8
100
AcDbEntity
  8
SLD-0
  6
Continuous
 62
   250
420
  1644836
370
    15
100
AcDbLine
 10
7.9289321882
 20
181.4644660941
 30
0.0
 11
11.4644660942
 21
177.9289321882
 31
0.0
  0
LINE
  5
175
330
D8
100
AcDbEntity
  8
SLD-0
  6
Continuous
 62
   250
420
  1644836
370
    15
100
AcDbLine
 10
11.4644660942
 20
177.9289321882
 30
0.0
 11
15.0000000001
 21
181.4644660941
 31
0.0
  0
LINE
  5
176
330
D8
100
AcDbEntity
  8
SLD-0
  6
Continuous
 62
   250
420
  1644836
370
    15
100
AcDbLine
 10
15.0000000001
 20
181.4644660941
 30
0.0
 11
18.5017029893
 21
177.9627631049
 31
0.0
  0
LINE
  5
177
330
D8
100
AcDbEntity
  8
SLD-0
  6
Continuous
 62
   250
420
  1644836
370
    15
100
AcDbLine
 10
18.5017029893
 20
177.9627631049
 30
0.0
 11
22.0372368953
 21
181.4982970109
 31
0.0
  0
LINE
  5
178
330
D8
100
AcDbEntity
  8
SLD-0
  6
Continuous
 62
   250
420
  1644836
370
    15
100
AcDbLine
 10
18.535533906
 20
185.0000000001
 30
0.0
 11
22.0372368953
 21
181.4982970109
 31
0.0
  0
LINE
  5
179
330
D8
100
AcDbEntity
  8
SLD-0
  6
Continuous
 62
   250
420
  1644836
370
    15
100
AcDbLine
 10
18.535533906
 20
185.0000000001
 30
0.0
 11
22.071067812
 21
188.535533906
 31
0.0
  0
LINE
  5
17A
330
D8
100
AcDbEntity
  8
SLD-0
  6
Continuous
 62
   250
420
  1644836
370
    15
100
AcDbLine
 10
22.071067812
 20
188.535533906
 30
0.0
 11
18.535533906
 21
192.071067812
 31
0.0
  0
LINE
  5
17B
330
D8
100
AcDbEntity
  8
SLD-0
  6
Continuous
 62
   250
420
  1644836
370
    15
100
AcDbLine
 10
15.0
 20
188.535533906
 30
0.0
 11
18.535533906
 21
192.071067812
 31
0.0
  0
LINE
  5
17C
330
D8
100
AcDbEntity
  8
SLD-0
  6
Continuous
 62
   250
420
  1644836
370
    15
100
AcDbLine
 10
11.4306351774
 20
192.1048987287
 30
0.0
 11
15.0
 21
188.535533906
 31
0.0
  0
LINE
  5
17D
330
D8
100
AcDbEntity
  8
SLD-0
  6
Continuous
 62
   250
420
  1644836
370
    15
100
AcDbLine
 10
7.8951012714
 20
188.5693648227
 30
0.0
 11
11.4306351774
 21
192.1048987287
 31
0.0
  0
LINE
  5
17E
330
D8
100
AcDbEntity
  8
SLD-0
  6
Continuous
 62
   250
420
  1644836
370
    15
100
AcDbLine
 10
7.8951012714
 20
188.5693648227
 30
0.0
 11
11.4644660941
 21
185.0
 31
0.0
  0
LINE
  5
17F
330
D8
100
AcDbEntity
  8
SLD-0
  6
Continuous
 62
   250
420
  1644836
370
    15
100
AcDbLine
 10
185.0
 20
181.4644660941
 30
0.0
 11
181.4982970108
 21
177.9627631049
 31
0.0
  0
LINE
  5
180
330
D8
100
AcDbEntity
  8
SLD-0
  6
Continuous
 62
   250
420
  1644836
370
    15
100
AcDbLine
 10
188.535533906
 20
177.9289321882
 30
0.0
 11
185.0
 21
181.4644660941
 31
0.0
  0
LINE
  5
181
330
D8
100
AcDbEntity
  8
SLD-0
  6
Continuous
 62
   250
420
  1644836
370
    15
100
AcDbLine
 10
192.071067812
 20
181.4644660941
 30
0.0
 11
188.535533906
 21
177.9289321882
 31
0.0
  0
LINE
  5
182
330
D8
100
AcDbEntity
  8
SLD-0
  6
Continuous
 62
   250
420
  1644836
370
    15
100
AcDbLine
 10
192.071067812
 20
181.4644660941
 30
0.0
 11
188.535533906
 21
185.0000000001
 31
0.0
  0
LINE
  5
183
330
D8
100
AcDbEntity
  8
SLD-0
  6
Continuous
 62
   250
420
  1644836
370
    15
100
AcDbLine
 10
192.1048987287
 20
188.5693648227
 30
0.0
 11
188.535533906
 21
185.0000000001
 31
0.0
  0
LINE
  5
184
330
D8
100
AcDbEntity
  8
SLD-0
  6
Continuous
 62
   250
420
  1644836
370
    15
100
AcDbLine
 10
192.1048987287
 20
188.5693648227
 30
0.0
 11
188.5693648228
 21
192.1048987286
 31
0.0
  0
LINE
  5
185
330
D8
100
AcDbEntity
  8
SLD-0
  6
Continuous
 62
   250
420
  1644836
370
    15
100
AcDbLine
 10
188.5693648228
 20
192.1048987286
 30
0.0
 11
185.0000000001
 21
188.5355339059
 31
0.0
  0
LINE
  5
186
330
D8
100
AcDbEntity
  8
SLD-0
  6
Continuous
 62
   250
420
  1644836
370
    15
100
AcDbLine
 10
185.0000000001
 20
188.5355339059
 30
0.0
 11
181.4644660942
 21
192.0710678119
 31
0.0
  0
LINE
  5
187
330
D8
100
AcDbEntity
  8
SLD-0
  6
Continuous
 62
   250
420
  1644836
370
    15
100
AcDbLine
 10
177.9289321882
 20
188.5355339059
 30
0.0
 11
181.4644660942
 21
192.0710678119
 31
0.0
  0
LINE
  5
188
330
D8
100
AcDbEntity
  8
SLD-0
  6
Continuous
 62
   250
420
  1644836
370
    15
100
AcDbLine
 10
181.4644660941
 20
185.0
 30
0.0
 11
177.9289321882
 21
188.5355339059
 31
0.0
  0
LINE
  5
189
330
D8
100
AcDbEntity
  8
SLD-0
  6
Continuous
 62
   250
420
  1644836
370
    15
100
AcDbLine
 10
181.4644660941
 20
185.0
 30
0.0
 11
177.9627631049
 21
181.4982970108
 31
0.0
  0
LINE
  5
18A
330
D8
100
AcDbEntity
  8
SLD-0
  6
Continuous
 62
   250
420
  1644836
370
    15
100
AcDbLine
 10
134.7252934224
 20
53.006464022
 30
0.0
 11
134.7252934224
 21
42.7759314443
 31
0.0
  0
LINE
  5
18B
330
D8
100
AcDbEntity
  8
SLD-0
  6
Continuous
 62
   250
420
  1644836
370
    15
100
AcDbLine
 10
60.1758276458
 20
130.8905707288
 30
0.0
 11
57.7334417076
 21
133.20946449
 31
0.0
  0
LINE
  5
18C
330
D8
100
AcDbEntity
  8
SLD-0
  6
Continuous
 62
   250
420
  1644836
370
    15
100
AcDbLine
 10
63.1245838427
 20
113.96699141
 30
0.0
 11
64.201846757
 21
113.96699141
 31
0.0
  0
LINE
  5
18D
330
D8
100
AcDbEntity
  8
SLD-0
  6
Continuous
 62
   250
420
  1644836
370
    15
100
AcDbLine
 10
65.201846757
 20
128.966991411
 30
0.0
 11
65.201846757
 21
114.96699141
 31
0.0
  0
LINE
  5
18E
330
D8
100
AcDbEntity
  8
SLD-0
  6
Continuous
 62
   250
420
  1644836
370
    15
100
AcDbLine
 10
136.8754161574
 20
86.03300859
 30
0.0
 11
135.798153243
 21
86.03300859
 31
0.0
  0
LINE
  5
18F
330
D8
100
AcDbEntity
  8
SLD-0
  6
Continuous
 62
   250
420
  1644836
370
    15
100
AcDbLine
 10
134.798153243
 20
71.033008589
 30
0.0
 11
134.798153243
 21
85.03300859
 31
0.0
  0
LINE
  5
190
330
D8
100
AcDbEntity
  8
SLD-0
  6
Continuous
 62
   250
420
  1644836
370
    15
100
AcDbLine
 10
135.0044261932
 20
71.033008589
 30
0.0
 11
134.798153243
 21
71.033008589
 31
0.0
  0
LINE
  5
191
330
D8
100
AcDbEntity
  8
SLD-0
  6
Continuous
 62
   250
420
  1644836
370
    15
100
AcDbLine
 10
139.8241723542
 20
69.1094292713
 30
0.0
 11
142.2665582924
 21
66.79053551
 31
0.0
  0
LINE
  5
192
330
D8
100
AcDbEntity
  8
SLD-0
  6
Continuous
 62
   250
420
  1644836
370
    15
100
AcDbLine
 10
64.9955738069
 20
71.0330085891
 30
0.0
 11
65.201846757
 21
71.0330085891
 31
0.0
  0
LINE
  5
193
330
D8
100
AcDbEntity
  8
SLD-0
  6
Continuous
 62
   250
420
  1644836
370
    15
100
AcDbLine
 10
65.201846757
 20
71.0330085891
 30
0.0
 11
65.201846757
 21
85.03300859
 31
0.0
  0
LINE
  5
194
330
D8
100
AcDbEntity
  8
SLD-0
  6
Continuous
 62
   250
420
  1644836
370
    15
100
AcDbLine
 10
63.1245838427
 20
86.03300859
 30
0.0
 11
64.201846757
 21
86.03300859
 31
0.0
  0
LINE
  5
195
330
D8
100
AcDbEntity
  8
SLD-0
  6
Continuous
 62
   250
420
  1644836
370
    15
100
AcDbLine
 10
124.9310156129
 20
42.7759314443
 30
0.0
 11
75.0689843872
 21
42.7759314443
 31
0.0
  0
ENDBLK
  5
DA
330
D8
100
AcDbEntity
  8
0
100
AcDbBlockEnd
  0
BLOCK
  5
197
330
196
100
AcDbEntity
  8
0
100
AcDbBlockBegin
  2
Block4
 70
     0
 10
0.0
 20
0.0
 30
0.0
  3
Block4
  1

  0
ARC
  5
199
330
196
100
AcDbEntity
  8
SLD-0
  6
Continuous
 62
   250
420
  1644836
370
    15
100
AcDbCircle
 10
-32.4393912657
 20
38.0
 30
0.0
 40
38.93939126570409
100
AcDbArc
 50
0.0
 51
27.5868525091
  0
ARC
  5
19A
330
196
100
AcDbEntity
  8
SLD-0
  6
Continuous
 62
   250
420
  1644836
370
    15
100
AcDbCircle
 10
62.4393912658
 20
38.0
 30
0.0
 40
38.93939126579698
100
AcDbArc
 50
152.413147491
 51
180.0
  0
LINE
  5
19B
330
196
100
AcDbEntity
  8
SLD-0
  6
Continuous
 62
   250
420
  1644836
370
    15
100
AcDbLine
 10
7.5
 20
65.0
 30
0.0
 11
22.5
 21
65.0
 31
0.0
  0
LINE
  5
19C
330
196
100
AcDbEntity
  8
SLD-0
  6
Continuous
 62
   250
420
  1644836
370
    15
100
AcDbLine
 10
7.5
 20
60.0
 30
0.0
 11
7.5
 21
65.0
 31
0.0
  0
LINE
  5
19D
330
196
100
AcDbEntity
  8
SLD-0
  6
Continuous
 62
   250
420
  1644836
370
    15
100
AcDbLine
 10
0.0
 20
60.0
 30
0.0
 11
7.5
 21
60.0
 31
0.0
  0
LINE
  5
19E
330
196
100
AcDbEntity
  8
SLD-0
  6
Continuous
 62
   250
420
  1644836
370
    15
100
AcDbLine
 10
2.0729754301
 20
56.0325466088
 30
0.0
 11
0.0
 21
60.0
 31
0.0
  0
LINE
  5
19F
330
196
100
AcDbEntity
  8
SLD-0
  6
Continuous
 62
   250
420
  1644836
370
    15
100
AcDbLine
 10
6.5
 20
0.0
 30
0.0
 11
6.5
 21
38.0
 31
0.0
  0
LINE
  5
1A0
330
196
100
AcDbEntity
  8
SLD-0
  6
Continuous
 62
   250
420
  1644836
370
    15
100
AcDbLine
 10
12.5
 20
0.0
 30
0.0
 11
6.5
 21
0.0
 31
0.0
  0
LINE
  5
1A1
330
196
100
AcDbEntity
  8
SLD-0
  6
Continuous
 62
   250
420
  1644836
370
    15
100
AcDbLine
 10
12.5
 20
51.3917415242
 30
0.0
 11
12.5
 21
0.0
 31
0.0
  0
LINE
  5
1A2
330
196
100
AcDbEntity
  8
SLD-0
  6
Continuous
 62
   250
420
  1644836
370
    15
100
AcDbLine
 10
17.5
 20
51.3917415242
 30
0.0
 11
12.5
 21
51.3917415242
 31
0.0
  0
LINE
  5
1A3
330
196
100
AcDbEntity
  8
SLD-0
  6
Continuous
 62
   250
420
  1644836
370
    15
100
AcDbLine
 10
17.5
 20
0.0
 30
0.0
 11
17.5
 21
51.3917415242
 31
0.0
  0
LINE
  5
1A4
330
196
100
AcDbEntity
  8
SLD-0
  6
Continuous
 62
   250
420
  1644836
370
    15
100
AcDbLine
 10
23.5
 20
0.0
 30
0.0
 11
17.5
 21
0.0
 31
0.0
  0
LINE
  5
1A5
330
196
100
AcDbEntity
  8
SLD-0
  6
Continuous
 62
   250
420
  1644836
370
    15
100
AcDbLine
 10
23.5
 20
38.0
 30
0.0
 11
23.5
 21
0.0
 31
0.0
  0
LINE
  5
1A6
330
196
100
AcDbEntity
  8
SLD-0
  6
Continuous
 62
   250
420
  1644836
370
    15
100
AcDbLine
 10
30.0
 20
60.0
 30
0.0
 11
27.9270245699
 21
56.0325466088
 31
0.0
  0
LINE
  5
1A7
330
196
100
AcDbEntity
  8
SLD-0
  6
Continuous
 62
   250
420
  1644836
370
    15
100
AcDbLine
 10
22.5
 20
60.0
 30
0.0
 11
30.0
 21
60.0
 31
0.0
  0
LINE
  5
1A8
330
196
100
AcDbEntity
  8
SLD-0
  6
Continuous
 62
   250
420
  1644836
370
    15
100
AcDbLine
 10
22.5
 20
65.0
 30
0.0
 11
22.5
 21
60.0
 31
0.0
  0
ENDBLK
  5
198
330
196
100
AcDbEntity
  8
0
100
AcDbBlockEnd
  0
ENDSEC
  0
SECTION
  2
ENTITIES
  0
INSERT
  5
1A9
330
1F
100
AcDbEntity
  8
0
  6
Continuous
 62
     7
100
AcDbBlockReference
  2
Block1
 10
8.9081482548
 20
224.7252005185
 30
0.0
  0
INSERT
  5
1AA
330
1F
100
AcDbEntity
  8
0
  6
Continuous
 62
     7
100
AcDbBlockReference
  2
Block2
 10
-18.6069260843
 20
119.0277136939
 30
0.0
 50
331.65
  0
INSERT
  5
1AB
330
1F
100
AcDbEntity
  8
0
  6
Continuous
 62
     7
100
AcDbBlockReference
  2
Block3
 10
58.5083354674
 20
238.7290799118
 30
0.0
 50
270.0
  0
INSERT
  5
1AC
330
1F
100
AcDbEntity
  8
0
  6
Continuous
 62
     7
100
AcDbBlockReference
  2
Block4
 10
266.8495395029
 20
157.8712135925
 30
0.0
 50
180.0
  0
INSERT
  5
1AD
330
1F
100
AcDbEntity
  8
0
  6
Continuous
 62
     7
100
AcDbBlockReference
  2
Block1
 10
293.6961999137
 20
74.7207238075
 30
0.0
 50
180.0
  0
INSERT
  5
1AE
330
1F
100
AcDbEntity
  8
0
  6
Continuous
 62
     7
100
AcDbBlockReference
  2
Block2
 10
175.0677089615
 20
167.3132067841
 30
0.0
 50
61.65
  0
INSERT
  5
1AF
330
1F
100
AcDbEntity
  8
0
  6
Continuous
 62
     7
100
AcDbBlockReference
  2
Block1
 10
137.3405538174
 20
75.0725069531
 30
0.0
 50
180.0
  0
INSERT
  5
1B0
330
1F
100
AcDbEntity
  8
0
  6
Continuous
 62
     7
100
AcDbBlockReference
  2
Block4
 10
202.9323477188
 20
53.2291842684
 30
0.0
 50
90.0
  0
INSERT
  5
1B1
330
1F
100
AcDbEntity
  8
0
  6
Continuous
 62
     7
100
AcDbBlockReference
  2
Block4
 10
208.5074587274
 20
107.3554973579
 30
0.0
  0
INSERT
  5
1B2
330
1F
100
AcDbEntity
  8
0
  6
Continuous
 62
     7
100
AcDbBlockReference
  2
Block1
 10
229.163636323
 20
281.2913962763
 30
0.0
 50
270.0
  0
INSERT
  5
1B3
330
1F
100
AcDbEntity
  8
0
  6
Continuous
 62
     7
100
AcDbBlockReference
  2
Block4
 10
264.3818465419
 20
79.966720536
 30
0.0
  0
ENDSEC
  0
SECTION
  2
OBJECTS
  0
DICTIONARY
  5
C
330
0
100
AcDbDictionary
281
     1
  3
ACAD_GROUP
350
D
  3
ACAD_LAYOUT
350
1A
  3
ACAD_MATERIAL
350
3B
  3
ACAD_MLEADERSTYLE
350
1B5
  3
ACAD_MLINESTYLE
350
17
  3
ACAD_PLOTSETTINGS
350
19
  3
ACAD_PLOTSTYLENAME
350
E
  3
ACAD_TABLESTYLE
350
1B4
  3
ACAD_VISUALSTYLE
350
2A
  0
DICTIONARY
  5
D
102
{ACAD_REACTORS
330
C
102
}
330
C
100
AcDbDictionary
281
     1
  0
DICTIONARY
  5
1A
102
{ACAD_REACTORS
330
C
102
}
330
C
100
AcDbDictionary
281
     1
  3
Layout1
350
1E
  3
Layout2
350
26
  3
Model
350
22
  0
DICTIONARY
  5
3B
102
{ACAD_REACTORS
330
C
102
}
330
C
100
AcDbDictionary
281
     1
  3
ByBlock
350
3D
  3
ByLayer
350
3C
  3
Global
350
3E
  0
DICTIONARY
  5
1B5
102
{ACAD_REACTORS
330
C
102
}
330
C
100
AcDbDictionary
281
     1
  0
DICTIONARY
  5
17
102
{ACAD_REACTORS
330
C
102
}
330
C
100
AcDbDictionary
281
     1
  3
Standard
350
18
  0
DICTIONARY
  5
19
102
{ACAD_REACTORS
330
C
102
}
330
C
100
AcDbDictionary
281
     1
  0
ACDBDICTIONARYWDFLT
  5
E
102
{ACAD_REACTORS
330
C
102
}
330
C
100
AcDbDictionary
281
     1
  3
Normal
350
F
100
AcDbDictionaryWithDefault
340
F
  0
DICTIONARY
  5
1B4
102
{ACAD_REACTORS
330
C
102
}
330
C
100
AcDbDictionary
281
     1
  0
DICTIONARY
  5
2A
102
{ACAD_REACTORS
330
C
102
}
330
C
100
AcDbDictionary
281
     1
  3
2dWireframe
350
2F
  3
3D Hidden
350
31
  3
3dWireframe
350
30
  3
Basic
350
32
  3
Brighten
350
36
  3
ColorChange
350
3A
  3
Conceptual
350
34
  3
Dim
350
35
  3
Facepattern
350
39
  3
Flat
350
2B
  3
FlatWithEdges
350
2C
  3
Gouraud
350
2D
  3
GouraudWithEdges
350
2E
  3
Linepattern
350
38
  3
Realistic
350
33
  3
Thicken
350
37
  0
LAYOUT
  5
1E
102
{ACAD_REACTORS
330
1A
102
}
330
1A
100
AcDbPlotSettings
  1

  2
none_device
  4

  6

 40
0.0
 41
0.0
 42
0.0
 43
0.0
 44
0.0
 45
0.0
 46
0.0
 47
0.0
 48
0.0
 49
0.0
140
0.0
141
0.0
142
1.0
143
1.0
 70
   688
 72
     0
 73
     0
 74
     5
  7

 75
    16
 76
     0
 77
     2
 78
   300
147
1.0
148
0.0
149
0.0
100
AcDbLayout
  1
Layout1
 70
     1
 71
     1
 10
0.0
 20
0.0
 11
420.0
 21
297.0
 12
0.0
 22
0.0
 32
0.0
 14
1.0000000000E+20
 24
1.0000000000E+20
 34
1.0000000000E+20
 15
-1.0000000000E+20
 25
-1.0000000000E+20
 35
-1.0000000000E+20
146
0.0
 13
0.0
 23
0.0
 33
0.0
 16
1.0
 26
0.0
 36
0.0
 17
0.0
 27
1.0
 37
0.0
 76
     0
330
1B
  0
LAYOUT
  5
26
102
{ACAD_REACTORS
330
1A
102
}
330
1A
100
AcDbPlotSettings
  1

  2
none_device
  4

  6

 40
0.0
 41
0.0
 42
0.0
 43
0.0
 44
0.0
 45
0.0
 46
0.0
 47
0.0
 48
0.0
 49
0.0
140
0.0
141
0.0
142
1.0
143
1.0
 70
   688
 72
     0
 73
     0
 74
     5
  7

 75
    16
 76
     0
 77
     2
 78
   300
147
1.0
148
0.0
149
0.0
100
AcDbLayout
  1
Layout2
 70
     1
 71
     2
 10
0.0
 20
0.0
 11
0.0
 21
0.0
 12
0.0
 22
0.0
 32
0.0
 14
0.0
 24
0.0
 34
0.0
 15
0.0
 25
0.0
 35
0.0
146
0.0
 13
0.0
 23
0.0
 33
0.0
 16
1.0
 26
0.0
 36
0.0
 17
0.0
 27
1.0
 37
0.0
 76
     0
330
23
  0
LAYOUT
  5
22
102
{ACAD_REACTORS
330
1A
102
}
330
1A
100
AcDbPlotSettings
  1

  2
none_device
  4

  6

 40
0.0
 41
0.0
 42
0.0
 43
0.0
 44
0.0
 45
0.0
 46
0.0
 47
0.0
 48
0.0
 49
0.0
140
0.0
141
0.0
142
1.0
143
1.0
 70
  1712
 72
     0
 73
     0
 74
     0
  7

 75
     0
 76
     0
 77
     2
 78
   300
147
1.0
148
0.0
149
0.0
100
AcDbLayout
  1
Model
 70
     1
 71
     0
 10
0.0
 20
0.0
 11
300.0
 21
300.0
 12
0.0
 22
0.0
 32
0.0
 14
0.0
 24
0.0
 34
0.0
 15
300.0
 25
300.0
 35
0.0
146
0.0
 13
0.0
 23
0.0
 33
0.0
 16
1.0
 26
0.0
 36
0.0
 17
0.0
 27
1.0
 37
0.0
 76
     0
330
1F
331
29
  0
MATERIAL
  5
3D
102
{ACAD_REACTORS
330
3B
102
}
330
3B
100
AcDbMaterial
  1
ByBlock
 72
     1
 94
      127
  0
MATERIAL
  5
3C
102
{ACAD_REACTORS
330
3B
102
}
330
3B
100
AcDbMaterial
  1
ByLayer
 72
     1
 94
      127
  0
MATERIAL
  5
3E
102
{ACAD_REACTORS
330
3B
102
}
330
3B
100
AcDbMaterial
  1
Global
 72
     1
 94
      127
  0
MLINESTYLE
  5
18
102
{ACAD_REACTORS
330
17
102
}
330
17
100
AcDbMlineStyle
  2
Standard
 70
     0
  3

 62
   256
 51
90.0
 52
90.0
 71
     2
 49
0.5
 62
   256
  6
BYLAYER
 49
-0.5
 62
   256
  6
BYLAYER
  0
ACDBPLACEHOLDER
  5
F
102
{ACAD_REACTORS
330
E
102
}
330
E
  0
VISUALSTYLE
  5
2F
102
{ACAD_REACTORS
330
2A
102
}
330
2A
100
AcDbVisualStyle
  2
2dWireframe
 70
     4
177
     2
291
     0
 71
     0
176
     1
 72
     2
176
     1
 73
     0
176
     1
 90
        0
176
     1
 40
-0.6
176
     1
 41
-30.0
176
     1
 62
     5
 63
     7
421
 16777215
176
     1
 74
     1
176
     1
 91
        4
176
     1
 64
     7
176
     1
 65
   257
176
     1
 75
     1
176
     1
175
     1
176
     1
 42
1.0
176
     1
 92
        0
176
     1
 66
   257
176
     1
 43
1.0
176
     1
 76
     1
176
     1
 77
     6
176
     1
 78
     2
176
     1
 67
     7
176
     1
 79
     5
176
     1
170
     0
176
     1
171
     0
176
     1
290
     0
176
     1
 93
        1
176
     1
 44
0.0
176
     1
173
     0
176
     1
  0
VISUALSTYLE
  5
31
102
{ACAD_REACTORS
330
2A
102
}
330
2A
100
AcDbVisualStyle
  2
3D Hidden
 70
     6
177
     2
291
     0
 71
     1
176
     1
 72
     2
176
     1
 73
     2
176
     1
 90
        0
176
     1
 40
-0.6
176
     1
 41
-30.0
176
     1
 62
     5
 63
     7
421
 16777215
176
     1
 74
     2
176
     1
 91
        2
176
     1
 64
     7
176
     1
 65
   257
176
     1
 75
     2
176
     1
175
     1
176
     1
 42
40.0
176
     1
 92
        0
176
     1
 66
   257
176
     1
 43
1.0
176
     1
 76
     1
176
     1
 77
     6
176
     1
 78
     2
176
     1
 67
     7
176
     1
 79
     3
176
     1
170
     0
176
     1
171
     0
176
     1
290
     0
176
     1
 93
        1
176
     1
 44
0.0
176
     1
173
     0
176
     1
  0
VISUALSTYLE
  5
30
102
{ACAD_REACTORS
330
2A
102
}
330
2A
100
AcDbVisualStyle
  2
3dWireframe
 70
     5
177
     2
291
     0
 71
     0
176
     1
 72
     2
176
     1
 73
     0
176
     1
 90
        0
176
     1
 40
-0.6
176
     1
 41
-30.0
176
     1
 62
     5
 63
     7
421
 16777215
176
     1
 74
     1
176
     1
 91
        4
176
     1
 64
     7
176
     1
 65
   257
176
     1
 75
     1
176
     1
175
     1
176
     1
 42
1.0
176
     1
 92
        0
176
     1
 66
   257
176
     1
 43
1.0
176
     1
 76
     1
176
     1
 77
     6
176
     1
 78
     2
176
     1
 67
     7
176
     1
 79
     5
176
     1
170
     0
176
     1
171
     0
176
     1
290
     0
176
     1
 93
        1
176
     1
 44
0.0
176
     1
173
     0
176
     1
  0
VISUALSTYLE
  5
32
102
{ACAD_REACTORS
330
2A
102
}
330
2A
100
AcDbVisualStyle
  2
Basic
 70
     7
177
     2
291
     1
 71
     1
176
     1
 72
     0
176
     1
 73
     1
176
     1
 90
        0
176
     1
 40
-0.6
176
     1
 41
-30.0
176
     1
 62
     5
 63
     7
421
 16777215
176
     1
 74
     0
176
     1
 91
        4
176
     1
 64
     7
176
     1
 65
   257
176
     1
 75
     1
176
     1
175
     1
176
     1
 42
1.0
176
     1
 92
        8
176
     1
 66
     7
176
     1
 43
1.0
176
     1
 76
     1
176
     1
 77
     6
176
     1
 78
     2
176
     1
 67
     7
176
     1
 79
     5
176
     1
170
     0
176
     1
171
     0
176
     1
290
     0
176
     1
 93
        1
176
     1
 44
0.0
176
     1
173
     0
176
     1
  0
VISUALSTYLE
  5
36
102
{ACAD_REACTORS
330
2A
102
}
330
2A
100
AcDbVisualStyle
  2
Brighten
 70
    12
177
     2
291
     1
 71
     2
176
     1
 72
     2
176
     1
 73
     0
176
     1
 90
        0
176
     1
 40
-0.6
176
     1
 41
-30.0
176
     1
 62
     5
 63
     7
421
 16777215
176
     1
 74
     1
176
     1
 91
        4
176
     1
 64
     7
176
     1
 65
   257
176
     1
 75
     1
176
     1
175
     1
176
     1
 42
1.0
176
     1
 92
        8
176
     1
 66
     7
176
     1
 43
1.0
176
     1
 76
     1
176
     1
 77
     6
176
     1
 78
     2
176
     1
 67
     7
176
     1
 79
     5
176
     1
170
     0
176
     1
171
     0
176
     1
290
     0
176
     1
 93
        1
176
     1
 44
50.0
176
     1
173
     0
176
     1
  0
VISUALSTYLE
  5
3A
102
{ACAD_REACTORS
330
2A
102
}
330
2A
100
AcDbVisualStyle
  2
ColorChange
 70
    16
177
     2
291
     1
 71
     2
176
     1
 72
     2
176
     1
 73
     3
176
     1
 90
        0
176
     1
 40
-0.6
176
     1
 41
-30.0
176
     1
 62
     5
 63
     8
421
  8421504
176
     1
 74
     1
176
     1
 91
        4
176
     1
 64
     7
176
     1
 65
   257
176
     1
 75
     1
176
     1
175
     1
176
     1
 42
1.0
176
     1
 92
        8
176
     1
 66
     8
424
  8421504
176
     1
 43
1.0
176
     1
 76
     1
176
     1
 77
     6
176
     1
 78
     2
176
     1
 67
     7
176
     1
 79
     5
176
     1
170
     0
176
     1
171
     0
176
     1
290
     0
176
     1
 93
        1
176
     1
 44
0.0
176
     1
173
     0
176
     1
  0
VISUALSTYLE
  5
34
102
{ACAD_REACTORS
330
2A
102
}
330
2A
100
AcDbVisualStyle
  2
Conceptual
 70
     9
177
     2
291
     0
 71
     3
176
     1
 72
     2
176
     1
 73
     0
176
     1
 90
        0
176
     1
 40
-0.6
176
     1
 41
-30.0
176
     1
 62
     5
 63
     7
421
 16777215
176
     1
 74
     2
176
     1
 91
        2
176
     1
 64
     7
176
     1
 65
   257
176
     1
 75
     1
176
     1
175
     1
176
     1
 42
40.0
176
     1
 92
        8
176
     1
 66
     7
176
     1
 43
1.0
176
     1
 76
     1
176
     1
 77
     6
176
     1
 78
     2
176
     1
 67
     7
176
     1
 79
     3
176
     1
170
     0
176
     1
171
     0
176
     1
290
     0
176
     1
 93
        1
176
     1
 44
0.0
176
     1
173
     0
176
     1
  0
VISUALSTYLE
  5
35
102
{ACAD_REACTORS
330
2A
102
}
330
2A
100
AcDbVisualStyle
  2
Dim
 70
    11
177
     2
291
     1
 71
     2
176
     1
 72
     2
176
     1
 73
     0
176
     1
 90
        0
176
     1
 40
-0.6
176
     1
 41
-30.0
176
     1
 62
     5
 63
     7
421
 16777215
176
     1
 74
     1
176
     1
 91
        4
176
     1
 64
     7
176
     1
 65
   257
176
     1
 75
     1
176
     1
175
     1
176
     1
 42
1.0
176
     1
 92
        8
176
     1
 66
     7
176
     1
 43
1.0
176
     1
 76
     1
176
     1
 77
     6
176
     1
 78
     2
176
     1
 67
     7
176
     1
 79
     5
176
     1
170
     0
176
     1
171
     0
176
     1
290
     0
176
     1
 93
        1
176
     1
 44
-50.0
176
     1
173
     0
176
     1
  0
VISUALSTYLE
  5
39
102
{ACAD_REACTORS
330
2A
102
}
330
2A
100
AcDbVisualStyle
  2
Facepattern
 70
    15
177
     2
291
     1
 71
     2
176
     1
 72
     2
176
     1
 73
     0
176
     1
 90
        0
176
     1
 40
-0.6
176
     1
 41
-30.0
176
     1
 62
     5
 63
     7
421
 16777215
176
     1
 74
     1
176
     1
 91
        4
176
     1
 64
     7
176
     1
 65
   257
176
     1
 75
     1
176
     1
175
     1
176
     1
 42
1.0
176
     1
 92
        8
176
     1
 66
     7
176
     1
 43
1.0
176
     1
 76
     1
176
     1
 77
     6
176
     1
 78
     2
176
     1
 67
     7
176
     1
 79
     5
176
     1
170
     0
176
     1
171
     0
176
     1
290
     0
176
     1
 93
        1
176
     1
 44
0.0
176
     1
173
     0
176
     1
  0
VISUALSTYLE
  5
2B
102
{ACAD_REACTORS
330
2A
102
}
330
2A
100
AcDbVisualStyle
  2
Flat
 70
     0
177
     2
291
     1
 71
     2
176
     1
 72
     1
176
     1
 73
     1
176
     1
 90
        2
176
     1
 40
-0.6
176
     1
 41
30.0
176
     1
 62
     5
 63
     7
421
 16777215
176
     1
 74
     0
176
     1
 91
        4
176
     1
 64
     7
176
     1
 65
   257
176
     1
 75
     1
176
     1
175
     1
176
     1
 42
1.0
176
     1
 92
        8
176
     1
 66
     7
176
     1
 43
1.0
176
     1
 76
     1
176
     1
 77
     6
176
     1
 78
     2
176
     1
 67
     7
176
     1
 79
     5
176
     1
170
     0
176
     1
171
     0
176
     1
290
     0
176
     1
 93
       13
176
     1
 44
0.0
176
     1
173
     0
176
     1
  0
VISUALSTYLE
  5
2C
102
{ACAD_REACTORS
330
2A
102
}
330
2A
100
AcDbVisualStyle
  2
FlatWithEdges
 70
     1
177
     2
291
     1
 71
     2
176
     1
 72
     1
176
     1
 73
     1
176
     1
 90
        2
176
     1
 40
-0.6
176
     1
 41
30.0
176
     1
 62
     5
 63
     7
421
 16777215
176
     1
 74
     1
176
     1
 91
        4
176
     1
 64
     7
176
     1
 65
   257
176
     1
 75
     1
176
     1
175
     1
176
     1
 42
1.0
176
     1
 92
        0
176
     1
 66
   257
176
     1
 43
1.0
176
     1
 76
     1
176
     1
 77
     6
176
     1
 78
     2
176
     1
 67
     7
176
     1
 79
     5
176
     1
170
     0
176
     1
171
     0
176
     1
290
     0
176
     1
 93
       13
176
     1
 44
0.0
176
     1
173
     0
176
     1
  0
VISUALSTYLE
  5
2D
102
{ACAD_REACTORS
330
2A
102
}
330
2A
100
AcDbVisualStyle
  2
Gouraud
 70
     2
177
     2
291
     1
 71
     2
176
     1
 72
     2
176
     1
 73
     1
176
     1
 90
        2
176
     1
 40
-0.6
176
     1
 41
30.0
176
     1
 62
     5
 63
     7
421
 16777215
176
     1
 74
     0
176
     1
 91
        4
176
     1
 64
     7
176
     1
 65
   257
176
     1
 75
     1
176
     1
175
     1
176
     1
 42
1.0
176
     1
 92
        0
176
     1
 66
     7
176
     1
 43
1.0
176
     1
 76
     1
176
     1
 77
     6
176
     1
 78
     2
176
     1
 67
     7
176
     1
 79
     5
176
     1
170
     0
176
     1
171
     0
176
     1
290
     0
176
     1
 93
       13
176
     1
 44
0.0
176
     1
173
     0
176
     1
  0
VISUALSTYLE
  5
2E
102
{ACAD_REACTORS
330
2A
102
}
330
2A
100
AcDbVisualStyle
  2
GouraudWithEdges
 70
     3
177
     2
291
     1
 71
     2
176
     1
 72
     2
176
     1
 73
     1
176
     1
 90
        2
176
     1
 40
-0.6
176
     1
 41
30.0
176
     1
 62
     5
 63
     7
421
 16777215
176
     1
 74
     1
176
     1
 91
        4
176
     1
 64
     7
176
     1
 65
   257
176
     1
 75
     1
176
     1
175
     1
176
     1
 42
1.0
176
     1
 92
        0
176
     1
 66
   257
176
     1
 43
1.0
176
     1
 76
     1
176
     1
 77
     6
176
     1
 78
     2
176
     1
 67
     7
176
     1
 79
     5
176
     1
170
     0
176
     1
171
     0
176
     1
290
     0
176
     1
 93
       13
176
     1
 44
0.0
176
     1
173
     0
176
     1
  0
VISUALSTYLE
  5
38
102
{ACAD_REACTORS
330
2A
102
}
330
2A
100
AcDbVisualStyle
  2
Linepattern
 70
    14
177
     2
291
     1
 71
     2
176
     1
 72
     2
176
     1
 73
     0
176
     1
 90
        0
176
     1
 40
-0.6
176
     1
 41
-30.0
176
     1
 62
     5
 63
     7
421
 16777215
176
     1
 74
     1
176
     1
 91
        4
176
     1
 64
     7
176
     1
 65
   257
176
     1
 75
     7
176
     1
175
     7
176
     1
 42
1.0
176
     1
 92
        8
176
     1
 66
     7
176
     1
 43
1.0
176
     1
 76
     1
176
     1
 77
     6
176
     1
 78
     2
176
     1
 67
     7
176
     1
 79
     5
176
     1
170
     0
176
     1
171
     0
176
     1
290
     0
176
     1
 93
        1
176
     1
 44
0.0
176
     1
173
     0
176
     1
  0
VISUALSTYLE
  5
33
102
{ACAD_REACTORS
330
2A
102
}
330
2A
100
AcDbVisualStyle
  2
Realistic
 70
     8
177
     2
291
     0
 71
     2
176
     1
 72
     2
176
     1
 73
     0
176
     1
 90
        0
176
     1
 40
-0.6
176
     1
 41
-30.0
176
     1
 62
     5
 63
     7
421
 16777215
176
     1
 74
     1
176
     1
 91
        0
176
     1
 64
     7
176
     1
 65
   257
176
     1
 75
     1
176
     1
175
     1
176
     1
 42
1.0
176
     1
 92
        8
176
     1
 66
     8
424
  7895160
176
     1
 43
1.0
176
     1
 76
     1
176
     1
 77
     6
176
     1
 78
     2
176
     1
 67
     7
176
     1
 79
     5
176
     1
170
     0
176
     1
171
     0
176
     1
290
     0
176
     1
 93
       13
176
     1
 44
0.0
176
     1
173
     0
176
     1
  0
VISUALSTYLE
  5
37
102
{ACAD_REACTORS
330
2A
102
}
330
2A
100
AcDbVisualStyle
  2
Thicken
 70
    13
177
     2
291
     1
 71
     2
176
     1
 72
     2
176
     1
 73
     0
176
     1
 90
        0
176
     1
 40
-0.6
176
     1
 41
-30.0
176
     1
 62
     5
 63
     7
421
 16777215
176
     1
 74
     1
176
     1
 91
        4
176
     1
 64
     7
176
     1
 65
   257
176
     1
 75
     1
176
     1
175
     1
176
     1
 42
1.0
176
     1
 92
       12
176
     1
 66
     7
176
     1
 43
1.0
176
     1
 76
     1
176
     1
 77
     6
176
     1
 78
     2
176
     1
 67
     7
176
     1
 79
     5
176
     1
170
     0
176
     1
171
     0
176
     1
290
     0
176
     1
 93
        1
176
     1
 44
0.0
176
     1
173
     0
176
     1
  0
ENDSEC
  0
EOF
